%TF.GenerationSoftware,KiCad,Pcbnew,7.0.9*%
%TF.CreationDate,2023-11-23T08:59:02-03:00*%
%TF.ProjectId,sensor de postura,73656e73-6f72-4206-9465-20706f737475,rev?*%
%TF.SameCoordinates,Original*%
%TF.FileFunction,Copper,L2,Bot*%
%TF.FilePolarity,Positive*%
%FSLAX46Y46*%
G04 Gerber Fmt 4.6, Leading zero omitted, Abs format (unit mm)*
G04 Created by KiCad (PCBNEW 7.0.9) date 2023-11-23 08:59:02*
%MOMM*%
%LPD*%
G01*
G04 APERTURE LIST*
G04 Aperture macros list*
%AMRoundRect*
0 Rectangle with rounded corners*
0 $1 Rounding radius*
0 $2 $3 $4 $5 $6 $7 $8 $9 X,Y pos of 4 corners*
0 Add a 4 corners polygon primitive as box body*
4,1,4,$2,$3,$4,$5,$6,$7,$8,$9,$2,$3,0*
0 Add four circle primitives for the rounded corners*
1,1,$1+$1,$2,$3*
1,1,$1+$1,$4,$5*
1,1,$1+$1,$6,$7*
1,1,$1+$1,$8,$9*
0 Add four rect primitives between the rounded corners*
20,1,$1+$1,$2,$3,$4,$5,0*
20,1,$1+$1,$4,$5,$6,$7,0*
20,1,$1+$1,$6,$7,$8,$9,0*
20,1,$1+$1,$8,$9,$2,$3,0*%
G04 Aperture macros list end*
%TA.AperFunction,NonConductor*%
%ADD10C,0.200000*%
%TD*%
%TA.AperFunction,ComponentPad*%
%ADD11R,2.199640X1.750000*%
%TD*%
%TA.AperFunction,ComponentPad*%
%ADD12O,2.199640X1.750000*%
%TD*%
%TA.AperFunction,ComponentPad*%
%ADD13R,1.300000X1.300000*%
%TD*%
%TA.AperFunction,ComponentPad*%
%ADD14C,1.300000*%
%TD*%
%TA.AperFunction,ComponentPad*%
%ADD15C,1.998980*%
%TD*%
%TA.AperFunction,ComponentPad*%
%ADD16RoundRect,0.250000X-0.600000X-0.750000X0.600000X-0.750000X0.600000X0.750000X-0.600000X0.750000X0*%
%TD*%
%TA.AperFunction,ComponentPad*%
%ADD17O,1.700000X2.000000*%
%TD*%
%TA.AperFunction,ComponentPad*%
%ADD18R,2.199640X1.524000*%
%TD*%
%TA.AperFunction,ComponentPad*%
%ADD19O,2.199640X1.524000*%
%TD*%
%TA.AperFunction,ComponentPad*%
%ADD20R,1.600000X1.600000*%
%TD*%
%TA.AperFunction,ComponentPad*%
%ADD21C,1.600000*%
%TD*%
%TA.AperFunction,ComponentPad*%
%ADD22C,1.750000*%
%TD*%
%TA.AperFunction,Conductor*%
%ADD23C,0.750000*%
%TD*%
%TA.AperFunction,Conductor*%
%ADD24C,0.250000*%
%TD*%
G04 APERTURE END LIST*
D10*
X55831000Y-33213000D02*
X143490000Y-33213000D01*
X143490000Y-80071000D01*
X55831000Y-80071000D01*
X55831000Y-33213000D01*
D11*
%TO.P,J4,1,Pin_1*%
%TO.N,Net-(J4-Pin_1)*%
X132969000Y-55499000D03*
D12*
%TO.P,J4,2,Pin_2*%
%TO.N,GND*%
X132969000Y-58039000D03*
%TD*%
D13*
%TO.P,U2,1,IN*%
%TO.N,VCC*%
X138090000Y-68108000D03*
D14*
%TO.P,U2,2,GND*%
%TO.N,GND*%
X135550000Y-68108000D03*
%TO.P,U2,3,OUT*%
%TO.N,/5V*%
X133010000Y-68108000D03*
%TD*%
D11*
%TO.P,J2,1,Pin_1*%
%TO.N,/3V*%
X64540800Y-49142050D03*
D12*
%TO.P,J2,2,Pin_2*%
%TO.N,/incli*%
X64540800Y-46602050D03*
%TD*%
D15*
%TO.P,R1,1*%
%TO.N,GND*%
X60706000Y-73660000D03*
%TO.P,R1,2*%
%TO.N,/vibra*%
X68326000Y-73660000D03*
%TD*%
D16*
%TO.P,SW1,1,1*%
%TO.N,Net-(J4-Pin_1)*%
X132900000Y-48168000D03*
D17*
%TO.P,SW1,2,2*%
%TO.N,VCC*%
X135400000Y-48168000D03*
%TD*%
D11*
%TO.P,J3,1,Pin_1*%
%TO.N,/vibra*%
X80270000Y-75986000D03*
D12*
%TO.P,J3,2,Pin_2*%
%TO.N,VCC*%
X80270000Y-73446000D03*
%TD*%
D15*
%TO.P,R2,1*%
%TO.N,/incli*%
X60198000Y-51054000D03*
%TO.P,R2,2*%
%TO.N,GND*%
X60198000Y-58674000D03*
%TD*%
D18*
%TO.P,J1,1,Pin_1*%
%TO.N,GND*%
X126914000Y-73152000D03*
D19*
%TO.P,J1,2,Pin_2*%
%TO.N,/Temp*%
X126914000Y-70612000D03*
%TO.P,J1,3,Pin_3*%
%TO.N,unconnected-(J1-Pin_3-Pad3)*%
X126914000Y-68072000D03*
%TD*%
D20*
%TO.P,C1,1*%
%TO.N,GND*%
X135550144Y-61341000D03*
D21*
%TO.P,C1,2*%
%TO.N,VCC*%
X138050144Y-61341000D03*
%TD*%
D20*
%TO.P,C2,1*%
%TO.N,GND*%
X129412856Y-62230000D03*
D21*
%TO.P,C2,2*%
%TO.N,/5V*%
X126912856Y-62230000D03*
%TD*%
D15*
%TO.P,R4,1*%
%TO.N,/Temp*%
X110210000Y-67786000D03*
%TO.P,R4,2*%
%TO.N,/5V*%
X117830000Y-67786000D03*
%TD*%
D22*
%TO.P,U1,1,3V3*%
%TO.N,/3V*%
X77120000Y-62200000D03*
%TO.P,U1,2,EN*%
%TO.N,unconnected-(U1-EN-Pad2)*%
X79660000Y-62200000D03*
%TO.P,U1,3,SVP*%
%TO.N,unconnected-(U1-SVP-Pad3)*%
X82200000Y-62200000D03*
%TO.P,U1,4,SVN*%
%TO.N,unconnected-(U1-SVN-Pad4)*%
X84740000Y-62200000D03*
%TO.P,U1,5,IO34*%
%TO.N,/incli*%
X87280000Y-62200000D03*
%TO.P,U1,6,IO35*%
%TO.N,/Temp*%
X89820000Y-62200000D03*
%TO.P,U1,7,IO32*%
%TO.N,unconnected-(U1-IO32-Pad7)*%
X92360000Y-62200000D03*
%TO.P,U1,8,IO33*%
%TO.N,/vibra*%
X94900000Y-62200000D03*
%TO.P,U1,9,IO25*%
%TO.N,unconnected-(U1-IO25-Pad9)*%
X97440000Y-62200000D03*
%TO.P,U1,10,IO26*%
%TO.N,unconnected-(U1-IO26-Pad10)*%
X99980000Y-62200000D03*
%TO.P,U1,11,IO27*%
%TO.N,unconnected-(U1-IO27-Pad11)*%
X102520000Y-62200000D03*
%TO.P,U1,12,IO14*%
%TO.N,unconnected-(U1-IO14-Pad12)*%
X105060000Y-62200000D03*
%TO.P,U1,13,IO12*%
%TO.N,unconnected-(U1-IO12-Pad13)*%
X107600000Y-62200000D03*
%TO.P,U1,14,GND*%
%TO.N,unconnected-(U1-GND-Pad14)*%
X110140000Y-62200000D03*
%TO.P,U1,15,IO13*%
%TO.N,unconnected-(U1-IO13-Pad15)*%
X112680000Y-62200000D03*
%TO.P,U1,16,SD2*%
%TO.N,unconnected-(U1-SD2-Pad16)*%
X115220000Y-62200000D03*
%TO.P,U1,17,SD3*%
%TO.N,unconnected-(U1-SD3-Pad17)*%
X117760000Y-62200000D03*
%TO.P,U1,18,CMD*%
%TO.N,unconnected-(U1-CMD-Pad18)*%
X120300000Y-62200000D03*
%TO.P,U1,19,5V*%
%TO.N,/5V*%
X122840000Y-62200000D03*
%TO.P,U1,20,CLK*%
%TO.N,unconnected-(U1-CLK-Pad20)*%
X122840000Y-38700000D03*
%TO.P,U1,21,SD0*%
%TO.N,unconnected-(U1-SD0-Pad21)*%
X120300000Y-38700000D03*
%TO.P,U1,22,SD1*%
%TO.N,unconnected-(U1-SD1-Pad22)*%
X117760000Y-38700000D03*
%TO.P,U1,23,IO15*%
%TO.N,unconnected-(U1-IO15-Pad23)*%
X115220000Y-38700000D03*
%TO.P,U1,24,IO02*%
%TO.N,unconnected-(U1-IO02-Pad24)*%
X112680000Y-38700000D03*
%TO.P,U1,25,IO0*%
%TO.N,unconnected-(U1-IO0-Pad25)*%
X110140000Y-38700000D03*
%TO.P,U1,26,IO4*%
%TO.N,unconnected-(U1-IO4-Pad26)*%
X107600000Y-38700000D03*
%TO.P,U1,27,IO16*%
%TO.N,unconnected-(U1-IO16-Pad27)*%
X105060000Y-38700000D03*
%TO.P,U1,28,IO17*%
%TO.N,unconnected-(U1-IO17-Pad28)*%
X102520000Y-38700000D03*
%TO.P,U1,29,IO5*%
%TO.N,unconnected-(U1-IO5-Pad29)*%
X99980000Y-38700000D03*
%TO.P,U1,30,IO18*%
%TO.N,unconnected-(U1-IO18-Pad30)*%
X97440000Y-38700000D03*
%TO.P,U1,31,IO19*%
%TO.N,unconnected-(U1-IO19-Pad31)*%
X94900000Y-38700000D03*
%TO.P,U1,32,GND*%
%TO.N,unconnected-(U1-GND-Pad32)*%
X92360000Y-38700000D03*
%TO.P,U1,33,IO21*%
%TO.N,unconnected-(U1-IO21-Pad33)*%
X89820000Y-38700000D03*
%TO.P,U1,34,RXD0*%
%TO.N,unconnected-(U1-RXD0-Pad34)*%
X87280000Y-38700000D03*
%TO.P,U1,35,TXD0*%
%TO.N,unconnected-(U1-TXD0-Pad35)*%
X84740000Y-38700000D03*
%TO.P,U1,36,IO22*%
%TO.N,unconnected-(U1-IO22-Pad36)*%
X82200000Y-38700000D03*
%TO.P,U1,37,IO23*%
%TO.N,unconnected-(U1-IO23-Pad37)*%
X79660000Y-38700000D03*
%TO.P,U1,38,GND*%
%TO.N,GND*%
X77120000Y-38700000D03*
%TD*%
D23*
%TO.N,/5V*%
X127508000Y-62825144D02*
X126912856Y-62230000D01*
X127508000Y-65024000D02*
X127508000Y-62825144D01*
X129540000Y-67056000D02*
X127508000Y-65024000D01*
X122850000Y-65336000D02*
X120400000Y-67786000D01*
X131958000Y-67056000D02*
X129540000Y-67056000D01*
X133010000Y-68108000D02*
X131958000Y-67056000D01*
X122850000Y-62230000D02*
X126912856Y-62230000D01*
X120400000Y-67786000D02*
X117830000Y-67786000D01*
X122850000Y-62230000D02*
X122850000Y-65336000D01*
%TO.N,/Temp*%
X111160000Y-70576000D02*
X110210000Y-69626000D01*
X121322000Y-70612000D02*
X126914000Y-70612000D01*
X110210000Y-69626000D02*
X110210000Y-67786000D01*
X97440000Y-62240000D02*
X97440000Y-65226000D01*
X97450000Y-62230000D02*
X97440000Y-62240000D01*
X121286000Y-70576000D02*
X121322000Y-70612000D01*
X102790000Y-70576000D02*
X121286000Y-70576000D01*
X97440000Y-65226000D02*
X102790000Y-70576000D01*
%TO.N,/vibra*%
X87503000Y-70866000D02*
X69088000Y-70866000D01*
X80270000Y-75986000D02*
X80056000Y-76200000D01*
X68326000Y-71628000D02*
X68326000Y-73660000D01*
X69088000Y-76200000D02*
X68326000Y-75438000D01*
X94900000Y-63469000D02*
X87503000Y-70866000D01*
X80056000Y-76200000D02*
X69088000Y-76200000D01*
X68326000Y-75438000D02*
X68326000Y-73660000D01*
X69088000Y-70866000D02*
X68326000Y-71628000D01*
X94900000Y-62200000D02*
X94900000Y-63469000D01*
%TO.N,Net-(J4-Pin_1)*%
X132900000Y-48168000D02*
X132900000Y-55430000D01*
D24*
X132842000Y-48058000D02*
X132986000Y-47914000D01*
D23*
X132900000Y-55430000D02*
X132969000Y-55499000D01*
%TO.N,/incli*%
X76835000Y-46609000D02*
X87280000Y-57054000D01*
X87280000Y-57054000D02*
X87280000Y-62200000D01*
X64540800Y-46602050D02*
X64547750Y-46609000D01*
X60198000Y-48514000D02*
X60198000Y-51054000D01*
X62109950Y-46602050D02*
X60198000Y-48514000D01*
X64547750Y-46609000D02*
X76835000Y-46609000D01*
X64540800Y-46602050D02*
X62109950Y-46602050D01*
%TO.N,/3V*%
X64540800Y-58952800D02*
X67788000Y-62200000D01*
X64540800Y-49142050D02*
X64540800Y-58952800D01*
X67788000Y-62200000D02*
X77120000Y-62200000D01*
%TO.N,VCC*%
X138090000Y-61380856D02*
X138050144Y-61341000D01*
X138050144Y-61341000D02*
X138050144Y-48642144D01*
X80270000Y-73446000D02*
X84664000Y-73446000D01*
X134280000Y-75692000D02*
X86910000Y-75692000D01*
X137576000Y-48168000D02*
X135400000Y-48168000D01*
X84664000Y-73446000D02*
X86910000Y-75692000D01*
X138050144Y-48642144D02*
X137576000Y-48168000D01*
X138090000Y-68108000D02*
X138090000Y-71882000D01*
X138090000Y-68108000D02*
X138090000Y-61380856D01*
D24*
X80177183Y-73353183D02*
X80270000Y-73446000D01*
D23*
X138090000Y-71882000D02*
X134280000Y-75692000D01*
%TD*%
%TA.AperFunction,Conductor*%
%TO.N,GND*%
G36*
X142031085Y-34333713D02*
G01*
X142160280Y-34392714D01*
X142267619Y-34485724D01*
X142344406Y-34605208D01*
X142384421Y-34741485D01*
X142389500Y-34812500D01*
X142389500Y-78471500D01*
X142369287Y-78612085D01*
X142310286Y-78741280D01*
X142217276Y-78848619D01*
X142097792Y-78925406D01*
X141961515Y-78965421D01*
X141890500Y-78970500D01*
X57430500Y-78970500D01*
X57289915Y-78950287D01*
X57160720Y-78891286D01*
X57053381Y-78798276D01*
X56976594Y-78678792D01*
X56936579Y-78542515D01*
X56931500Y-78471500D01*
X56931500Y-51054000D01*
X58192901Y-51054000D01*
X58210791Y-51304140D01*
X58213311Y-51339363D01*
X58274121Y-51618900D01*
X58274122Y-51618902D01*
X58374098Y-51886948D01*
X58511203Y-52138038D01*
X58682647Y-52367061D01*
X58884939Y-52569353D01*
X59113962Y-52740797D01*
X59365052Y-52877902D01*
X59633098Y-52977878D01*
X59912645Y-53038690D01*
X60198000Y-53059099D01*
X60483355Y-53038690D01*
X60762902Y-52977878D01*
X61030948Y-52877902D01*
X61282038Y-52740797D01*
X61511061Y-52569353D01*
X61713353Y-52367061D01*
X61884797Y-52138038D01*
X62021902Y-51886948D01*
X62121878Y-51618902D01*
X62178704Y-51357680D01*
X62228339Y-51224605D01*
X62313454Y-51110904D01*
X62427155Y-51025789D01*
X62560231Y-50976155D01*
X62701899Y-50966022D01*
X62840683Y-50996213D01*
X62965340Y-51064281D01*
X63065771Y-51164712D01*
X63133838Y-51289369D01*
X63164029Y-51428154D01*
X63165300Y-51463751D01*
X63165300Y-58901037D01*
X63164794Y-58916916D01*
X63160638Y-58982100D01*
X63160638Y-58982109D01*
X63171494Y-59084006D01*
X63180182Y-59186094D01*
X63182663Y-59200560D01*
X63185441Y-59214927D01*
X63213362Y-59313526D01*
X63239185Y-59412696D01*
X63244028Y-59426404D01*
X63244055Y-59426476D01*
X63244088Y-59426569D01*
X63249234Y-59440204D01*
X63249236Y-59440210D01*
X63249238Y-59440214D01*
X63293418Y-59532671D01*
X63335629Y-59626052D01*
X63342750Y-59638799D01*
X63342785Y-59638859D01*
X63342815Y-59638914D01*
X63350186Y-59651473D01*
X63350187Y-59651475D01*
X63350189Y-59651478D01*
X63409366Y-59735150D01*
X63466743Y-59820041D01*
X63466745Y-59820043D01*
X63466747Y-59820046D01*
X63475950Y-59831444D01*
X63485398Y-59842650D01*
X63557855Y-59915107D01*
X63628758Y-59989085D01*
X63648445Y-60006411D01*
X63660018Y-60017269D01*
X65252852Y-61610103D01*
X66778774Y-63136025D01*
X66789647Y-63147613D01*
X66832797Y-63196641D01*
X66912530Y-63261020D01*
X66990869Y-63327070D01*
X67002828Y-63335528D01*
X67014973Y-63343737D01*
X67104444Y-63393718D01*
X67192812Y-63445575D01*
X67206001Y-63451877D01*
X67219372Y-63457921D01*
X67219381Y-63457926D01*
X67316005Y-63492065D01*
X67411874Y-63528245D01*
X67411889Y-63528248D01*
X67425982Y-63532239D01*
X67440145Y-63535927D01*
X67440151Y-63535929D01*
X67541151Y-63553247D01*
X67641753Y-63572704D01*
X67641754Y-63572704D01*
X67641759Y-63572705D01*
X67641763Y-63572705D01*
X67656180Y-63574240D01*
X67656328Y-63574253D01*
X67656451Y-63574266D01*
X67670919Y-63575498D01*
X67670928Y-63575500D01*
X67670937Y-63575500D01*
X67773406Y-63575500D01*
X67875850Y-63577675D01*
X67875850Y-63577674D01*
X67875851Y-63577675D01*
X67902031Y-63576006D01*
X67917913Y-63575500D01*
X75661769Y-63575500D01*
X75802354Y-63595713D01*
X75931549Y-63654714D01*
X75960797Y-63675021D01*
X76103438Y-63781801D01*
X76338895Y-63910371D01*
X76338899Y-63910373D01*
X76338901Y-63910374D01*
X76369327Y-63921722D01*
X76590261Y-64004126D01*
X76852407Y-64061152D01*
X77120000Y-64080291D01*
X77387593Y-64061152D01*
X77649739Y-64004126D01*
X77901101Y-63910373D01*
X78136562Y-63781801D01*
X78136566Y-63781797D01*
X78150852Y-63773997D01*
X78283927Y-63724361D01*
X78425595Y-63714228D01*
X78564379Y-63744418D01*
X78629148Y-63773997D01*
X78643433Y-63781797D01*
X78643438Y-63781801D01*
X78773103Y-63852604D01*
X78878894Y-63910371D01*
X78878901Y-63910374D01*
X78909327Y-63921722D01*
X79130261Y-64004126D01*
X79392407Y-64061152D01*
X79660000Y-64080291D01*
X79927593Y-64061152D01*
X80189739Y-64004126D01*
X80441101Y-63910373D01*
X80676562Y-63781801D01*
X80676566Y-63781797D01*
X80690852Y-63773997D01*
X80823927Y-63724361D01*
X80965595Y-63714228D01*
X81104379Y-63744418D01*
X81169148Y-63773997D01*
X81183433Y-63781797D01*
X81183438Y-63781801D01*
X81313103Y-63852604D01*
X81418894Y-63910371D01*
X81418901Y-63910374D01*
X81449327Y-63921722D01*
X81670261Y-64004126D01*
X81932407Y-64061152D01*
X82200000Y-64080291D01*
X82467593Y-64061152D01*
X82729739Y-64004126D01*
X82981101Y-63910373D01*
X83216562Y-63781801D01*
X83216566Y-63781797D01*
X83230852Y-63773997D01*
X83363927Y-63724361D01*
X83505595Y-63714228D01*
X83644379Y-63744418D01*
X83709148Y-63773997D01*
X83723433Y-63781797D01*
X83723438Y-63781801D01*
X83853103Y-63852604D01*
X83958894Y-63910371D01*
X83958901Y-63910374D01*
X83989327Y-63921722D01*
X84210261Y-64004126D01*
X84472407Y-64061152D01*
X84740000Y-64080291D01*
X85007593Y-64061152D01*
X85269739Y-64004126D01*
X85521101Y-63910373D01*
X85756562Y-63781801D01*
X85756566Y-63781797D01*
X85770852Y-63773997D01*
X85903927Y-63724361D01*
X86045595Y-63714228D01*
X86184379Y-63744418D01*
X86249148Y-63773997D01*
X86263433Y-63781797D01*
X86263438Y-63781801D01*
X86393103Y-63852604D01*
X86498894Y-63910371D01*
X86498901Y-63910374D01*
X86529327Y-63921722D01*
X86750261Y-64004126D01*
X87012407Y-64061152D01*
X87280000Y-64080291D01*
X87547593Y-64061152D01*
X87809739Y-64004126D01*
X88061101Y-63910373D01*
X88296562Y-63781801D01*
X88296566Y-63781797D01*
X88310852Y-63773997D01*
X88443927Y-63724361D01*
X88585595Y-63714228D01*
X88724379Y-63744418D01*
X88789148Y-63773997D01*
X88803433Y-63781797D01*
X88803438Y-63781801D01*
X88933103Y-63852604D01*
X89038894Y-63910371D01*
X89038901Y-63910374D01*
X89069327Y-63921722D01*
X89290261Y-64004126D01*
X89552407Y-64061152D01*
X89820000Y-64080291D01*
X90087593Y-64061152D01*
X90349739Y-64004126D01*
X90601101Y-63910373D01*
X90836562Y-63781801D01*
X90836566Y-63781797D01*
X90850852Y-63773997D01*
X90983927Y-63724361D01*
X91125595Y-63714228D01*
X91264379Y-63744418D01*
X91329148Y-63773997D01*
X91343433Y-63781797D01*
X91343438Y-63781801D01*
X91488210Y-63860853D01*
X91594543Y-63918916D01*
X91593010Y-63921722D01*
X91686103Y-63981536D01*
X91779124Y-64088866D01*
X91838138Y-64218055D01*
X91858366Y-64358638D01*
X91838167Y-64499224D01*
X91779179Y-64628425D01*
X91712212Y-64711535D01*
X87079403Y-69344346D01*
X86965702Y-69429462D01*
X86832627Y-69479096D01*
X86726557Y-69490500D01*
X69139748Y-69490500D01*
X69123877Y-69489994D01*
X69080002Y-69487196D01*
X69058702Y-69485838D01*
X69058690Y-69485838D01*
X68956793Y-69496694D01*
X68854694Y-69505384D01*
X68840265Y-69507857D01*
X68825877Y-69510640D01*
X68781595Y-69523179D01*
X68727259Y-69538566D01*
X68670929Y-69553233D01*
X68628104Y-69564384D01*
X68614281Y-69569267D01*
X68600584Y-69574438D01*
X68582344Y-69583154D01*
X68508116Y-69618623D01*
X68498219Y-69623097D01*
X68414749Y-69660827D01*
X68401937Y-69667984D01*
X68389323Y-69675387D01*
X68305650Y-69734565D01*
X68220756Y-69791944D01*
X68209338Y-69801163D01*
X68198154Y-69810592D01*
X68125692Y-69883055D01*
X68051717Y-69953954D01*
X68034374Y-69973659D01*
X68023508Y-69985240D01*
X67389970Y-70618777D01*
X67378385Y-70629648D01*
X67329361Y-70672795D01*
X67264986Y-70752520D01*
X67198930Y-70830867D01*
X67190454Y-70842850D01*
X67182266Y-70854966D01*
X67132301Y-70944408D01*
X67080425Y-71032808D01*
X67074121Y-71046001D01*
X67068077Y-71059373D01*
X67033940Y-71155986D01*
X66997750Y-71251887D01*
X66993769Y-71265943D01*
X66990070Y-71280149D01*
X66972752Y-71381151D01*
X66953294Y-71481758D01*
X66951741Y-71496333D01*
X66950500Y-71510928D01*
X66950500Y-71613405D01*
X66948325Y-71715848D01*
X66949994Y-71742012D01*
X66950500Y-71757899D01*
X66950500Y-72000394D01*
X66930287Y-72140979D01*
X66871286Y-72270174D01*
X66821115Y-72332430D01*
X66822317Y-72333471D01*
X66810652Y-72346932D01*
X66639207Y-72575956D01*
X66639202Y-72575963D01*
X66502097Y-72827053D01*
X66402121Y-73095099D01*
X66341311Y-73374636D01*
X66341310Y-73374642D01*
X66341310Y-73374645D01*
X66320901Y-73660000D01*
X66330025Y-73787577D01*
X66341311Y-73945363D01*
X66402121Y-74224900D01*
X66402122Y-74224902D01*
X66502098Y-74492948D01*
X66639203Y-74744038D01*
X66810647Y-74973061D01*
X66810649Y-74973063D01*
X66810652Y-74973067D01*
X66822317Y-74986529D01*
X66820393Y-74988196D01*
X66889462Y-75080461D01*
X66939096Y-75213536D01*
X66950500Y-75319606D01*
X66950500Y-75386237D01*
X66949994Y-75402116D01*
X66945838Y-75467300D01*
X66945838Y-75467309D01*
X66956694Y-75569206D01*
X66965382Y-75671294D01*
X66967863Y-75685760D01*
X66970641Y-75700127D01*
X66998562Y-75798726D01*
X67024385Y-75897896D01*
X67029228Y-75911604D01*
X67029255Y-75911676D01*
X67029288Y-75911769D01*
X67034434Y-75925404D01*
X67034436Y-75925410D01*
X67034438Y-75925414D01*
X67078618Y-76017871D01*
X67120829Y-76111252D01*
X67127950Y-76123999D01*
X67127985Y-76124059D01*
X67128015Y-76124114D01*
X67135386Y-76136673D01*
X67135387Y-76136675D01*
X67135389Y-76136678D01*
X67194566Y-76220350D01*
X67251943Y-76305241D01*
X67251945Y-76305243D01*
X67251947Y-76305246D01*
X67261150Y-76316644D01*
X67270598Y-76327850D01*
X67343053Y-76400305D01*
X67380042Y-76438897D01*
X67413956Y-76474283D01*
X67413963Y-76474288D01*
X67433637Y-76491604D01*
X67445226Y-76502478D01*
X68078774Y-77136025D01*
X68089647Y-77147613D01*
X68132796Y-77196641D01*
X68132799Y-77196643D01*
X68212533Y-77261023D01*
X68290868Y-77327070D01*
X68290872Y-77327072D01*
X68290874Y-77327074D01*
X68302781Y-77335496D01*
X68302838Y-77335535D01*
X68314964Y-77343731D01*
X68314967Y-77343732D01*
X68314970Y-77343735D01*
X68368177Y-77373458D01*
X68404410Y-77393699D01*
X68492802Y-77445570D01*
X68492809Y-77445574D01*
X68492815Y-77445576D01*
X68505966Y-77451860D01*
X68506011Y-77451881D01*
X68506037Y-77451893D01*
X68519378Y-77457924D01*
X68519381Y-77457926D01*
X68519383Y-77457926D01*
X68519386Y-77457928D01*
X68615996Y-77492062D01*
X68711875Y-77528245D01*
X68711881Y-77528246D01*
X68725985Y-77532239D01*
X68740136Y-77535924D01*
X68740151Y-77535929D01*
X68841155Y-77553248D01*
X68878988Y-77560565D01*
X68941747Y-77572703D01*
X68941750Y-77572703D01*
X68941759Y-77572705D01*
X68941767Y-77572705D01*
X68956319Y-77574254D01*
X68956333Y-77574256D01*
X68956356Y-77574258D01*
X68970921Y-77575498D01*
X68970928Y-77575500D01*
X68970935Y-77575500D01*
X69073406Y-77575500D01*
X69175850Y-77577675D01*
X69175850Y-77577674D01*
X69175851Y-77577675D01*
X69202031Y-77576006D01*
X69217913Y-77575500D01*
X78285576Y-77575500D01*
X78426161Y-77595713D01*
X78555356Y-77654714D01*
X78600912Y-77687765D01*
X78616773Y-77700698D01*
X78797131Y-77794909D01*
X78992762Y-77850886D01*
X79112143Y-77861500D01*
X79112144Y-77861499D01*
X79112145Y-77861500D01*
X79112146Y-77861500D01*
X79980535Y-77861499D01*
X81427856Y-77861499D01*
X81547238Y-77850886D01*
X81742869Y-77794909D01*
X81923227Y-77700698D01*
X82076770Y-77575500D01*
X82080928Y-77572110D01*
X82080930Y-77572108D01*
X82179874Y-77450762D01*
X82209518Y-77414407D01*
X82303729Y-77234049D01*
X82359706Y-77038418D01*
X82370320Y-76919037D01*
X82370319Y-75320499D01*
X82390532Y-75179916D01*
X82449533Y-75050720D01*
X82542543Y-74943381D01*
X82662027Y-74866594D01*
X82798304Y-74826579D01*
X82869319Y-74821500D01*
X83887557Y-74821500D01*
X84028142Y-74841713D01*
X84157337Y-74900714D01*
X84240403Y-74967654D01*
X85900766Y-76628016D01*
X85911639Y-76639604D01*
X85954797Y-76688641D01*
X86034533Y-76753023D01*
X86112868Y-76819070D01*
X86112871Y-76819072D01*
X86112875Y-76819075D01*
X86124781Y-76827496D01*
X86124838Y-76827535D01*
X86136964Y-76835731D01*
X86136967Y-76835732D01*
X86136970Y-76835735D01*
X86190177Y-76865458D01*
X86226410Y-76885699D01*
X86314802Y-76937570D01*
X86314809Y-76937574D01*
X86314815Y-76937576D01*
X86327966Y-76943860D01*
X86328011Y-76943881D01*
X86328037Y-76943893D01*
X86341378Y-76949924D01*
X86341381Y-76949926D01*
X86341383Y-76949926D01*
X86341386Y-76949928D01*
X86436575Y-76983560D01*
X86437996Y-76984062D01*
X86533875Y-77020245D01*
X86533881Y-77020246D01*
X86547985Y-77024239D01*
X86562136Y-77027924D01*
X86562151Y-77027929D01*
X86663155Y-77045248D01*
X86688512Y-77050152D01*
X86763747Y-77064703D01*
X86763750Y-77064703D01*
X86763759Y-77064705D01*
X86763767Y-77064705D01*
X86778319Y-77066254D01*
X86778333Y-77066256D01*
X86778356Y-77066258D01*
X86792921Y-77067498D01*
X86792928Y-77067500D01*
X86792935Y-77067500D01*
X86895406Y-77067500D01*
X86997850Y-77069675D01*
X86997850Y-77069674D01*
X86997851Y-77069675D01*
X87024031Y-77068006D01*
X87039913Y-77067500D01*
X134228251Y-77067500D01*
X134244121Y-77068005D01*
X134282541Y-77070455D01*
X134309296Y-77072162D01*
X134309297Y-77072161D01*
X134309301Y-77072162D01*
X134411206Y-77061305D01*
X134513301Y-77052616D01*
X134513306Y-77052614D01*
X134527665Y-77050152D01*
X134527736Y-77050139D01*
X134527802Y-77050127D01*
X134542113Y-77047359D01*
X134542128Y-77047358D01*
X134640726Y-77019437D01*
X134739890Y-76993617D01*
X134739895Y-76993614D01*
X134753580Y-76988779D01*
X134753690Y-76988738D01*
X134753788Y-76988703D01*
X134767404Y-76983564D01*
X134767414Y-76983562D01*
X134817565Y-76959596D01*
X134859872Y-76939381D01*
X134919141Y-76912589D01*
X134953250Y-76897172D01*
X134953256Y-76897167D01*
X134965921Y-76890093D01*
X134966015Y-76890038D01*
X134966112Y-76889983D01*
X134978662Y-76882618D01*
X134978678Y-76882611D01*
X135022203Y-76851827D01*
X135062348Y-76823435D01*
X135094650Y-76801601D01*
X135147241Y-76766057D01*
X135147253Y-76766045D01*
X135158632Y-76756856D01*
X135158676Y-76756820D01*
X135158732Y-76756774D01*
X135169831Y-76747416D01*
X135169843Y-76747408D01*
X135206076Y-76711174D01*
X135242307Y-76674944D01*
X135285593Y-76633457D01*
X135316283Y-76604044D01*
X135316292Y-76604031D01*
X135333606Y-76584358D01*
X135344454Y-76572795D01*
X139026045Y-72891203D01*
X139037586Y-72880375D01*
X139086641Y-72837203D01*
X139094837Y-72827053D01*
X139151023Y-72757466D01*
X139217070Y-72679132D01*
X139217083Y-72679109D01*
X139225557Y-72667129D01*
X139233726Y-72655040D01*
X139233735Y-72655030D01*
X139283698Y-72565590D01*
X139335574Y-72477191D01*
X139335578Y-72477179D01*
X139341832Y-72464091D01*
X139341879Y-72463988D01*
X139341927Y-72463887D01*
X139347914Y-72450640D01*
X139347926Y-72450619D01*
X139382062Y-72354003D01*
X139418245Y-72258125D01*
X139418247Y-72258110D01*
X139422163Y-72244286D01*
X139422234Y-72244014D01*
X139422298Y-72243788D01*
X139425924Y-72229863D01*
X139425929Y-72229849D01*
X139443248Y-72128844D01*
X139462705Y-72028241D01*
X139462705Y-72028233D01*
X139464255Y-72013678D01*
X139465500Y-71999067D01*
X139465500Y-71896595D01*
X139465538Y-71894800D01*
X139467675Y-71794150D01*
X139467674Y-71794141D01*
X139466006Y-71767966D01*
X139465500Y-71752089D01*
X139465500Y-69629114D01*
X139485713Y-69488529D01*
X139544714Y-69359334D01*
X139577773Y-69313768D01*
X139578027Y-69313455D01*
X139579698Y-69311407D01*
X139673909Y-69131049D01*
X139729886Y-68935418D01*
X139740500Y-68816037D01*
X139740499Y-67399964D01*
X139729886Y-67280582D01*
X139673909Y-67084951D01*
X139579698Y-66904593D01*
X139577765Y-66902222D01*
X139573918Y-66895823D01*
X139565771Y-66883461D01*
X139566283Y-66883123D01*
X139504591Y-66780495D01*
X139468674Y-66643081D01*
X139465500Y-66586886D01*
X139465500Y-62624168D01*
X139485713Y-62483583D01*
X139535004Y-62375648D01*
X139532623Y-62374273D01*
X139661608Y-62150862D01*
X139676887Y-62124398D01*
X139775478Y-61873195D01*
X139835527Y-61610103D01*
X139855693Y-61341000D01*
X139835527Y-61071897D01*
X139775478Y-60808805D01*
X139750548Y-60745286D01*
X139676888Y-60557604D01*
X139676887Y-60557602D01*
X139541963Y-60323905D01*
X139541959Y-60323898D01*
X139541952Y-60323889D01*
X139534511Y-60314558D01*
X139462661Y-60192042D01*
X139428238Y-60054247D01*
X139425644Y-60003436D01*
X139425644Y-48693891D01*
X139426149Y-48678023D01*
X139430306Y-48612843D01*
X139419449Y-48510937D01*
X139410760Y-48408843D01*
X139410757Y-48408833D01*
X139408272Y-48394340D01*
X139405503Y-48380020D01*
X139377581Y-48281417D01*
X139351762Y-48182258D01*
X139346922Y-48168562D01*
X139346869Y-48168421D01*
X139346822Y-48168290D01*
X139341708Y-48154739D01*
X139341706Y-48154730D01*
X139297525Y-48062272D01*
X139255316Y-47968894D01*
X139255315Y-47968892D01*
X139248221Y-47956194D01*
X139248178Y-47956120D01*
X139248137Y-47956047D01*
X139240752Y-47943460D01*
X139181578Y-47859795D01*
X139181577Y-47859793D01*
X139124201Y-47774903D01*
X139124193Y-47774895D01*
X139114970Y-47763472D01*
X139105547Y-47752295D01*
X139033088Y-47679836D01*
X138962190Y-47605862D01*
X138942490Y-47588524D01*
X138930919Y-47577668D01*
X138585208Y-47231957D01*
X138574351Y-47220385D01*
X138531203Y-47171359D01*
X138451480Y-47106987D01*
X138373134Y-47040931D01*
X138361213Y-47032500D01*
X138349024Y-47024261D01*
X138259590Y-46974301D01*
X138171185Y-46922422D01*
X138158019Y-46916131D01*
X138144615Y-46910072D01*
X138048011Y-46875939D01*
X137952120Y-46839752D01*
X137938079Y-46835777D01*
X137938060Y-46835772D01*
X137938011Y-46835758D01*
X137923857Y-46832072D01*
X137854729Y-46820218D01*
X137822848Y-46814752D01*
X137797696Y-46809887D01*
X137722244Y-46795295D01*
X137707597Y-46793735D01*
X137693079Y-46792500D01*
X137693072Y-46792500D01*
X137590594Y-46792500D01*
X137588370Y-46792452D01*
X137488148Y-46790324D01*
X137461969Y-46791994D01*
X137446087Y-46792500D01*
X136996409Y-46792500D01*
X136855824Y-46772287D01*
X136726629Y-46713286D01*
X136650071Y-46652736D01*
X136586881Y-46591814D01*
X136366579Y-46434201D01*
X136125675Y-46310344D01*
X136125671Y-46310342D01*
X136125670Y-46310342D01*
X135869309Y-46222883D01*
X135869306Y-46222882D01*
X135869305Y-46222882D01*
X135602933Y-46173681D01*
X135602926Y-46173680D01*
X135332238Y-46163788D01*
X135332237Y-46163788D01*
X135332235Y-46163788D01*
X135062982Y-46193414D01*
X135062980Y-46193414D01*
X135062975Y-46193415D01*
X134800923Y-46261924D01*
X134800914Y-46261927D01*
X134800912Y-46261928D01*
X134573757Y-46358458D01*
X134436467Y-46394838D01*
X134294487Y-46391065D01*
X134159321Y-46347445D01*
X134132333Y-46333204D01*
X134119634Y-46325999D01*
X134119626Y-46325993D01*
X133914683Y-46232904D01*
X133696412Y-46177904D01*
X133600176Y-46170330D01*
X133564221Y-46167500D01*
X133564217Y-46167500D01*
X132805112Y-46167500D01*
X132235781Y-46167501D01*
X132103593Y-46177903D01*
X132103588Y-46177904D01*
X131885316Y-46232904D01*
X131680375Y-46325991D01*
X131495347Y-46454179D01*
X131495338Y-46454187D01*
X131336187Y-46613338D01*
X131336179Y-46613347D01*
X131207991Y-46798375D01*
X131120110Y-46991854D01*
X131114904Y-47003317D01*
X131059904Y-47221588D01*
X131059087Y-47231974D01*
X131049500Y-47353778D01*
X131049501Y-48982219D01*
X131059903Y-49114406D01*
X131059904Y-49114411D01*
X131114904Y-49332683D01*
X131207991Y-49537624D01*
X131336179Y-49722652D01*
X131336187Y-49722661D01*
X131378346Y-49764820D01*
X131463462Y-49878521D01*
X131513096Y-50011596D01*
X131524500Y-50117666D01*
X131524500Y-53377983D01*
X131504287Y-53518568D01*
X131445286Y-53647763D01*
X131352276Y-53755102D01*
X131335177Y-53768055D01*
X131335385Y-53768310D01*
X131158071Y-53912889D01*
X131158069Y-53912891D01*
X131029484Y-54070589D01*
X131029482Y-54070592D01*
X130935275Y-54250942D01*
X130935271Y-54250951D01*
X130879294Y-54446582D01*
X130868680Y-54565963D01*
X130868681Y-56432036D01*
X130879294Y-56551418D01*
X130891510Y-56594110D01*
X130935270Y-56747046D01*
X130935275Y-56747057D01*
X131029482Y-56927407D01*
X131029484Y-56927410D01*
X131158069Y-57085108D01*
X131158071Y-57085110D01*
X131315769Y-57213695D01*
X131315773Y-57213698D01*
X131496131Y-57307909D01*
X131691762Y-57363886D01*
X131811143Y-57374500D01*
X131811144Y-57374499D01*
X131811145Y-57374500D01*
X131811146Y-57374500D01*
X132679535Y-57374499D01*
X134126856Y-57374499D01*
X134246238Y-57363886D01*
X134441869Y-57307909D01*
X134622227Y-57213698D01*
X134779929Y-57085109D01*
X134908518Y-56927407D01*
X135002729Y-56747049D01*
X135058706Y-56551418D01*
X135069320Y-56432037D01*
X135069319Y-54565964D01*
X135058706Y-54446582D01*
X135002729Y-54250951D01*
X134908518Y-54070593D01*
X134908515Y-54070589D01*
X134779930Y-53912891D01*
X134779928Y-53912889D01*
X134622230Y-53784304D01*
X134622228Y-53784303D01*
X134622227Y-53784302D01*
X134543463Y-53743159D01*
X134428213Y-53660152D01*
X134341018Y-53548038D01*
X134288940Y-53415900D01*
X134275500Y-53300866D01*
X134275500Y-50587071D01*
X134295713Y-50446486D01*
X134354714Y-50317291D01*
X134447724Y-50209952D01*
X134567208Y-50133165D01*
X134703485Y-50093150D01*
X134845515Y-50093150D01*
X134912829Y-50109323D01*
X134913044Y-50108504D01*
X134930684Y-50113115D01*
X134930688Y-50113115D01*
X134930695Y-50113118D01*
X135197067Y-50162319D01*
X135467765Y-50172212D01*
X135737018Y-50142586D01*
X135999088Y-50074072D01*
X135999105Y-50074064D01*
X136014518Y-50068807D01*
X136154099Y-50042543D01*
X136295425Y-50056668D01*
X136427047Y-50110036D01*
X136538302Y-50198325D01*
X136620177Y-50314381D01*
X136666038Y-50448803D01*
X136674644Y-50541078D01*
X136674644Y-60003436D01*
X136654431Y-60144021D01*
X136595430Y-60273216D01*
X136565777Y-60314558D01*
X136558335Y-60323889D01*
X136558324Y-60323905D01*
X136423400Y-60557602D01*
X136423399Y-60557604D01*
X136324811Y-60808799D01*
X136314380Y-60854500D01*
X136264761Y-61071897D01*
X136244595Y-61341000D01*
X136264761Y-61610103D01*
X136264762Y-61610107D01*
X136324811Y-61873200D01*
X136423399Y-62124395D01*
X136423400Y-62124397D01*
X136558324Y-62358094D01*
X136558329Y-62358102D01*
X136605633Y-62417419D01*
X136677483Y-62539933D01*
X136711906Y-62677728D01*
X136714500Y-62728541D01*
X136714500Y-66586886D01*
X136694287Y-66727471D01*
X136635286Y-66856666D01*
X136602234Y-66902224D01*
X136600301Y-66904594D01*
X136506095Y-67084942D01*
X136506090Y-67084953D01*
X136476525Y-67188278D01*
X136450114Y-67280582D01*
X136439500Y-67399963D01*
X136439501Y-68816036D01*
X136450114Y-68935418D01*
X136461901Y-68976611D01*
X136506090Y-69131046D01*
X136506093Y-69131054D01*
X136600302Y-69311407D01*
X136602227Y-69313768D01*
X136606066Y-69320153D01*
X136614229Y-69332540D01*
X136613715Y-69332878D01*
X136675405Y-69435495D01*
X136711324Y-69572908D01*
X136714500Y-69629114D01*
X136714500Y-71105557D01*
X136694287Y-71246142D01*
X136635286Y-71375337D01*
X136568346Y-71458403D01*
X133856403Y-74170346D01*
X133742702Y-74255462D01*
X133609627Y-74305096D01*
X133503557Y-74316500D01*
X87686443Y-74316500D01*
X87545858Y-74296287D01*
X87416663Y-74237286D01*
X87333597Y-74170346D01*
X86256597Y-73093346D01*
X86171481Y-72979645D01*
X86121847Y-72846570D01*
X86111714Y-72704902D01*
X86141905Y-72566117D01*
X86209973Y-72441460D01*
X86310403Y-72341030D01*
X86435060Y-72272962D01*
X86573845Y-72242771D01*
X86609443Y-72241500D01*
X87451251Y-72241500D01*
X87467121Y-72242005D01*
X87502883Y-72244286D01*
X87532296Y-72246162D01*
X87532297Y-72246161D01*
X87532301Y-72246162D01*
X87634206Y-72235305D01*
X87736301Y-72226616D01*
X87736306Y-72226614D01*
X87750665Y-72224152D01*
X87750736Y-72224139D01*
X87750802Y-72224127D01*
X87765113Y-72221359D01*
X87765128Y-72221358D01*
X87863726Y-72193437D01*
X87962890Y-72167617D01*
X87962895Y-72167614D01*
X87976580Y-72162779D01*
X87976690Y-72162738D01*
X87976788Y-72162703D01*
X87990404Y-72157564D01*
X87990414Y-72157562D01*
X88050512Y-72128844D01*
X88082872Y-72113381D01*
X88173690Y-72072329D01*
X88176250Y-72071172D01*
X88176256Y-72071167D01*
X88188921Y-72064093D01*
X88189015Y-72064038D01*
X88189112Y-72063983D01*
X88201662Y-72056618D01*
X88201678Y-72056611D01*
X88262558Y-72013553D01*
X88285348Y-71997435D01*
X88317650Y-71975601D01*
X88370241Y-71940057D01*
X88370253Y-71940045D01*
X88381632Y-71930856D01*
X88381676Y-71930820D01*
X88381732Y-71930774D01*
X88392831Y-71921416D01*
X88392843Y-71921408D01*
X88429076Y-71885174D01*
X88465307Y-71848944D01*
X88522487Y-71794141D01*
X88539283Y-71778044D01*
X88539292Y-71778031D01*
X88556606Y-71758358D01*
X88567454Y-71746795D01*
X95224330Y-65089918D01*
X95338027Y-65004806D01*
X95471102Y-64955172D01*
X95612770Y-64945039D01*
X95751555Y-64975230D01*
X95876212Y-65043298D01*
X95976642Y-65143728D01*
X96044710Y-65268385D01*
X96074374Y-65400447D01*
X96079383Y-65459295D01*
X96081863Y-65473760D01*
X96084641Y-65488127D01*
X96111464Y-65582848D01*
X96112562Y-65586726D01*
X96137707Y-65683295D01*
X96138385Y-65685896D01*
X96143228Y-65699604D01*
X96143255Y-65699676D01*
X96143288Y-65699769D01*
X96148434Y-65713404D01*
X96148436Y-65713410D01*
X96148438Y-65713414D01*
X96155291Y-65727755D01*
X96192618Y-65805871D01*
X96234829Y-65899252D01*
X96241950Y-65911999D01*
X96241985Y-65912059D01*
X96242015Y-65912114D01*
X96249386Y-65924673D01*
X96249387Y-65924675D01*
X96249389Y-65924678D01*
X96308566Y-66008350D01*
X96365943Y-66093241D01*
X96365945Y-66093243D01*
X96365947Y-66093246D01*
X96375150Y-66104644D01*
X96384598Y-66115850D01*
X96457055Y-66188307D01*
X96527958Y-66262285D01*
X96547645Y-66279611D01*
X96559218Y-66290469D01*
X99177541Y-68908792D01*
X101780774Y-71512025D01*
X101791647Y-71523613D01*
X101834797Y-71572641D01*
X101914517Y-71637010D01*
X101992868Y-71703070D01*
X101992870Y-71703071D01*
X102004829Y-71711529D01*
X102016964Y-71719731D01*
X102016967Y-71719732D01*
X102016970Y-71719735D01*
X102056848Y-71742012D01*
X102106410Y-71769699D01*
X102194802Y-71821570D01*
X102194809Y-71821574D01*
X102194815Y-71821576D01*
X102207966Y-71827860D01*
X102208011Y-71827881D01*
X102208037Y-71827893D01*
X102221378Y-71833924D01*
X102221381Y-71833926D01*
X102221383Y-71833926D01*
X102221386Y-71833928D01*
X102263886Y-71848944D01*
X102317996Y-71868062D01*
X102413875Y-71904245D01*
X102413881Y-71904246D01*
X102427985Y-71908239D01*
X102442136Y-71911924D01*
X102442151Y-71911929D01*
X102543155Y-71929248D01*
X102580988Y-71936565D01*
X102643747Y-71948703D01*
X102643750Y-71948703D01*
X102643759Y-71948705D01*
X102643767Y-71948705D01*
X102658319Y-71950254D01*
X102658333Y-71950256D01*
X102658356Y-71950258D01*
X102672921Y-71951498D01*
X102672928Y-71951500D01*
X102775380Y-71951500D01*
X102877845Y-71953676D01*
X102877846Y-71953675D01*
X102877851Y-71953676D01*
X102877855Y-71953675D01*
X102904050Y-71952006D01*
X102919931Y-71951500D01*
X111145406Y-71951500D01*
X111247850Y-71953675D01*
X111247850Y-71953674D01*
X111247851Y-71953675D01*
X111274031Y-71952006D01*
X111289913Y-71951500D01*
X120952507Y-71951500D01*
X121036837Y-71958677D01*
X121075155Y-71965248D01*
X121112988Y-71972565D01*
X121175747Y-71984703D01*
X121175750Y-71984703D01*
X121175759Y-71984705D01*
X121175767Y-71984705D01*
X121190319Y-71986254D01*
X121190333Y-71986256D01*
X121190356Y-71986258D01*
X121204921Y-71987498D01*
X121204928Y-71987500D01*
X121204935Y-71987500D01*
X121307406Y-71987500D01*
X121409850Y-71989675D01*
X121409850Y-71989674D01*
X121409851Y-71989675D01*
X121436031Y-71988006D01*
X121451913Y-71987500D01*
X125302202Y-71987500D01*
X125442787Y-72007713D01*
X125564261Y-72063188D01*
X125564374Y-72062993D01*
X125566417Y-72064172D01*
X125571982Y-72066714D01*
X125579907Y-72071961D01*
X125580541Y-72072327D01*
X125580544Y-72072329D01*
X125790310Y-72193437D01*
X125809318Y-72204411D01*
X125946178Y-72258125D01*
X126055217Y-72300920D01*
X126312756Y-72359701D01*
X126510234Y-72374500D01*
X126510236Y-72374500D01*
X127317764Y-72374500D01*
X127317766Y-72374500D01*
X127515244Y-72359701D01*
X127772783Y-72300920D01*
X128018684Y-72204410D01*
X128247456Y-72072329D01*
X128453986Y-71907627D01*
X128633662Y-71713982D01*
X128782470Y-71495721D01*
X128897085Y-71257719D01*
X128974949Y-71005293D01*
X129014320Y-70744081D01*
X129014320Y-70479919D01*
X128974949Y-70218707D01*
X128897085Y-69966281D01*
X128782470Y-69728279D01*
X128710757Y-69623096D01*
X128648265Y-69495554D01*
X128624236Y-69355572D01*
X128640618Y-69214489D01*
X128696083Y-69083737D01*
X128710758Y-69060903D01*
X128782470Y-68955721D01*
X128897085Y-68717719D01*
X128897087Y-68717711D01*
X128901075Y-68709431D01*
X128980283Y-68591538D01*
X129089497Y-68500736D01*
X129219868Y-68444382D01*
X129360836Y-68427040D01*
X129392218Y-68429027D01*
X129396567Y-68429254D01*
X129398814Y-68429445D01*
X129403513Y-68429743D01*
X129408202Y-68430242D01*
X129408328Y-68430253D01*
X129408451Y-68430266D01*
X129422919Y-68431498D01*
X129422928Y-68431500D01*
X129422937Y-68431500D01*
X129525406Y-68431500D01*
X129627850Y-68433675D01*
X129627850Y-68433674D01*
X129627851Y-68433675D01*
X129654031Y-68432006D01*
X129669913Y-68431500D01*
X131024089Y-68431500D01*
X131164674Y-68451713D01*
X131293869Y-68510714D01*
X131401208Y-68603724D01*
X131477995Y-68723208D01*
X131485105Y-68739542D01*
X131534844Y-68859625D01*
X131534849Y-68859634D01*
X131668395Y-69077562D01*
X131670588Y-69081140D01*
X131839311Y-69278689D01*
X132036860Y-69447412D01*
X132036865Y-69447415D01*
X132244148Y-69574438D01*
X132258372Y-69583154D01*
X132258377Y-69583156D01*
X132498382Y-69682570D01*
X132498385Y-69682571D01*
X132498390Y-69682573D01*
X132751006Y-69743221D01*
X133010000Y-69763604D01*
X133268994Y-69743221D01*
X133521610Y-69682573D01*
X133761628Y-69583154D01*
X133983140Y-69447412D01*
X134180689Y-69278689D01*
X134349412Y-69081140D01*
X134485154Y-68859628D01*
X134584573Y-68619610D01*
X134645221Y-68366994D01*
X134665604Y-68108000D01*
X134645221Y-67849006D01*
X134584573Y-67596390D01*
X134485154Y-67356372D01*
X134438709Y-67280581D01*
X134349415Y-67134865D01*
X134349412Y-67134860D01*
X134180689Y-66937311D01*
X133983140Y-66768588D01*
X133983135Y-66768585D01*
X133983134Y-66768584D01*
X133761634Y-66632849D01*
X133761629Y-66632846D01*
X133641619Y-66583136D01*
X133521610Y-66533427D01*
X133521607Y-66533426D01*
X133521598Y-66533423D01*
X133472992Y-66521754D01*
X133341011Y-66469280D01*
X133236640Y-66389389D01*
X133109534Y-66262283D01*
X132967208Y-66119957D01*
X132956351Y-66108385D01*
X132913203Y-66059359D01*
X132833480Y-65994987D01*
X132755134Y-65928931D01*
X132743213Y-65920500D01*
X132731024Y-65912261D01*
X132641590Y-65862301D01*
X132553185Y-65810422D01*
X132540019Y-65804131D01*
X132526615Y-65798072D01*
X132430011Y-65763939D01*
X132334120Y-65727752D01*
X132320079Y-65723777D01*
X132320060Y-65723772D01*
X132320011Y-65723758D01*
X132305857Y-65720072D01*
X132236729Y-65708218D01*
X132204848Y-65702752D01*
X132176399Y-65697250D01*
X132104244Y-65683295D01*
X132089597Y-65681735D01*
X132075079Y-65680500D01*
X132075072Y-65680500D01*
X131972594Y-65680500D01*
X131970370Y-65680452D01*
X131870148Y-65678324D01*
X131843969Y-65679994D01*
X131828087Y-65680500D01*
X130316443Y-65680500D01*
X130175858Y-65660287D01*
X130046663Y-65601286D01*
X129963597Y-65534346D01*
X129029654Y-64600403D01*
X128944538Y-64486702D01*
X128894904Y-64353627D01*
X128883500Y-64247557D01*
X128883500Y-62876891D01*
X128884005Y-62861023D01*
X128888162Y-62795843D01*
X128877305Y-62693937D01*
X128868616Y-62591843D01*
X128866164Y-62577547D01*
X128866132Y-62577379D01*
X128866109Y-62577248D01*
X128863356Y-62563007D01*
X128835433Y-62464403D01*
X128811965Y-62374273D01*
X128809617Y-62365254D01*
X128809614Y-62365247D01*
X128804718Y-62351391D01*
X128799564Y-62337734D01*
X128755376Y-62245261D01*
X128755376Y-62245260D01*
X128748739Y-62230577D01*
X128709254Y-62094153D01*
X128705840Y-62062332D01*
X128698239Y-61960899D01*
X128698239Y-61960897D01*
X128638190Y-61697805D01*
X128539599Y-61446602D01*
X128404671Y-61212898D01*
X128236417Y-61001915D01*
X128038597Y-60818365D01*
X127833227Y-60678346D01*
X127815637Y-60666353D01*
X127815636Y-60666352D01*
X127815631Y-60666349D01*
X127715653Y-60618202D01*
X127572505Y-60549265D01*
X127572502Y-60549264D01*
X127572499Y-60549263D01*
X127572497Y-60549262D01*
X127314628Y-60469720D01*
X127314626Y-60469719D01*
X127314624Y-60469719D01*
X127208661Y-60453748D01*
X127047785Y-60429500D01*
X126777927Y-60429500D01*
X126654314Y-60448131D01*
X126511086Y-60469719D01*
X126350960Y-60519111D01*
X126253215Y-60549262D01*
X126253211Y-60549263D01*
X126253205Y-60549266D01*
X126010089Y-60666345D01*
X126010075Y-60666353D01*
X125861291Y-60767793D01*
X125733748Y-60830286D01*
X125593765Y-60854315D01*
X125580194Y-60854500D01*
X124338307Y-60854500D01*
X124197722Y-60834287D01*
X124068527Y-60775286D01*
X124039268Y-60754970D01*
X123856571Y-60618205D01*
X123856569Y-60618203D01*
X123621100Y-60489626D01*
X123621098Y-60489625D01*
X123369739Y-60395874D01*
X123369736Y-60395873D01*
X123107600Y-60338849D01*
X123107601Y-60338849D01*
X123107595Y-60338848D01*
X123107593Y-60338848D01*
X122840000Y-60319709D01*
X122572407Y-60338848D01*
X122572404Y-60338848D01*
X122572398Y-60338849D01*
X122310263Y-60395873D01*
X122310260Y-60395874D01*
X122058901Y-60489625D01*
X122058898Y-60489626D01*
X121869180Y-60593221D01*
X121823438Y-60618199D01*
X121823436Y-60618200D01*
X121809147Y-60626003D01*
X121676072Y-60675638D01*
X121534404Y-60685771D01*
X121395619Y-60655581D01*
X121330853Y-60626003D01*
X121316563Y-60618200D01*
X121316562Y-60618199D01*
X121248807Y-60581202D01*
X121081101Y-60489626D01*
X121081098Y-60489625D01*
X120829739Y-60395874D01*
X120829736Y-60395873D01*
X120567600Y-60338849D01*
X120567601Y-60338849D01*
X120567595Y-60338848D01*
X120567593Y-60338848D01*
X120300000Y-60319709D01*
X120032407Y-60338848D01*
X120032404Y-60338848D01*
X120032398Y-60338849D01*
X119770263Y-60395873D01*
X119770260Y-60395874D01*
X119518901Y-60489625D01*
X119518898Y-60489626D01*
X119329180Y-60593221D01*
X119283438Y-60618199D01*
X119283436Y-60618200D01*
X119269147Y-60626003D01*
X119136072Y-60675638D01*
X118994404Y-60685771D01*
X118855619Y-60655581D01*
X118790853Y-60626003D01*
X118776563Y-60618200D01*
X118776562Y-60618199D01*
X118708807Y-60581202D01*
X118541101Y-60489626D01*
X118541098Y-60489625D01*
X118289739Y-60395874D01*
X118289736Y-60395873D01*
X118027600Y-60338849D01*
X118027601Y-60338849D01*
X118027595Y-60338848D01*
X118027593Y-60338848D01*
X117760000Y-60319709D01*
X117492407Y-60338848D01*
X117492404Y-60338848D01*
X117492398Y-60338849D01*
X117230263Y-60395873D01*
X117230260Y-60395874D01*
X116978901Y-60489625D01*
X116978898Y-60489626D01*
X116789180Y-60593221D01*
X116743438Y-60618199D01*
X116743436Y-60618200D01*
X116729147Y-60626003D01*
X116596072Y-60675638D01*
X116454404Y-60685771D01*
X116315619Y-60655581D01*
X116250853Y-60626003D01*
X116236563Y-60618200D01*
X116236562Y-60618199D01*
X116168807Y-60581202D01*
X116001101Y-60489626D01*
X116001098Y-60489625D01*
X115749739Y-60395874D01*
X115749736Y-60395873D01*
X115487600Y-60338849D01*
X115487601Y-60338849D01*
X115487595Y-60338848D01*
X115487593Y-60338848D01*
X115220000Y-60319709D01*
X114952407Y-60338848D01*
X114952404Y-60338848D01*
X114952398Y-60338849D01*
X114690263Y-60395873D01*
X114690260Y-60395874D01*
X114438901Y-60489625D01*
X114438898Y-60489626D01*
X114249180Y-60593221D01*
X114203438Y-60618199D01*
X114203436Y-60618200D01*
X114189147Y-60626003D01*
X114056072Y-60675638D01*
X113914404Y-60685771D01*
X113775619Y-60655581D01*
X113710853Y-60626003D01*
X113696563Y-60618200D01*
X113696562Y-60618199D01*
X113628807Y-60581202D01*
X113461101Y-60489626D01*
X113461098Y-60489625D01*
X113209739Y-60395874D01*
X113209736Y-60395873D01*
X112947600Y-60338849D01*
X112947601Y-60338849D01*
X112947595Y-60338848D01*
X112947593Y-60338848D01*
X112680000Y-60319709D01*
X112412407Y-60338848D01*
X112412404Y-60338848D01*
X112412398Y-60338849D01*
X112150263Y-60395873D01*
X112150260Y-60395874D01*
X111898901Y-60489625D01*
X111898898Y-60489626D01*
X111709180Y-60593221D01*
X111663438Y-60618199D01*
X111663436Y-60618200D01*
X111649147Y-60626003D01*
X111516072Y-60675638D01*
X111374404Y-60685771D01*
X111235619Y-60655581D01*
X111170853Y-60626003D01*
X111156563Y-60618200D01*
X111156562Y-60618199D01*
X111088807Y-60581202D01*
X110921101Y-60489626D01*
X110921098Y-60489625D01*
X110669739Y-60395874D01*
X110669736Y-60395873D01*
X110407600Y-60338849D01*
X110407601Y-60338849D01*
X110407595Y-60338848D01*
X110407593Y-60338848D01*
X110140000Y-60319709D01*
X109872407Y-60338848D01*
X109872404Y-60338848D01*
X109872398Y-60338849D01*
X109610263Y-60395873D01*
X109610260Y-60395874D01*
X109358901Y-60489625D01*
X109358898Y-60489626D01*
X109169180Y-60593221D01*
X109123438Y-60618199D01*
X109123436Y-60618200D01*
X109109147Y-60626003D01*
X108976072Y-60675638D01*
X108834404Y-60685771D01*
X108695619Y-60655581D01*
X108630853Y-60626003D01*
X108616563Y-60618200D01*
X108616562Y-60618199D01*
X108548807Y-60581202D01*
X108381101Y-60489626D01*
X108381098Y-60489625D01*
X108129739Y-60395874D01*
X108129736Y-60395873D01*
X107867600Y-60338849D01*
X107867601Y-60338849D01*
X107867595Y-60338848D01*
X107867593Y-60338848D01*
X107600000Y-60319709D01*
X107332407Y-60338848D01*
X107332404Y-60338848D01*
X107332398Y-60338849D01*
X107070263Y-60395873D01*
X107070260Y-60395874D01*
X106818901Y-60489625D01*
X106818898Y-60489626D01*
X106629180Y-60593221D01*
X106583438Y-60618199D01*
X106583436Y-60618200D01*
X106569147Y-60626003D01*
X106436072Y-60675638D01*
X106294404Y-60685771D01*
X106155619Y-60655581D01*
X106090853Y-60626003D01*
X106076563Y-60618200D01*
X106076562Y-60618199D01*
X106008807Y-60581202D01*
X105841101Y-60489626D01*
X105841098Y-60489625D01*
X105589739Y-60395874D01*
X105589736Y-60395873D01*
X105327600Y-60338849D01*
X105327601Y-60338849D01*
X105327595Y-60338848D01*
X105327593Y-60338848D01*
X105060000Y-60319709D01*
X104792407Y-60338848D01*
X104792404Y-60338848D01*
X104792398Y-60338849D01*
X104530263Y-60395873D01*
X104530260Y-60395874D01*
X104278901Y-60489625D01*
X104278898Y-60489626D01*
X104089180Y-60593221D01*
X104043438Y-60618199D01*
X104043436Y-60618200D01*
X104029147Y-60626003D01*
X103896072Y-60675638D01*
X103754404Y-60685771D01*
X103615619Y-60655581D01*
X103550853Y-60626003D01*
X103536563Y-60618200D01*
X103536562Y-60618199D01*
X103468807Y-60581202D01*
X103301101Y-60489626D01*
X103301098Y-60489625D01*
X103049739Y-60395874D01*
X103049736Y-60395873D01*
X102787600Y-60338849D01*
X102787601Y-60338849D01*
X102787595Y-60338848D01*
X102787593Y-60338848D01*
X102520000Y-60319709D01*
X102252407Y-60338848D01*
X102252404Y-60338848D01*
X102252398Y-60338849D01*
X101990263Y-60395873D01*
X101990260Y-60395874D01*
X101738901Y-60489625D01*
X101738898Y-60489626D01*
X101549180Y-60593221D01*
X101503438Y-60618199D01*
X101503436Y-60618200D01*
X101489147Y-60626003D01*
X101356072Y-60675638D01*
X101214404Y-60685771D01*
X101075619Y-60655581D01*
X101010853Y-60626003D01*
X100996563Y-60618200D01*
X100996562Y-60618199D01*
X100928807Y-60581202D01*
X100761101Y-60489626D01*
X100761098Y-60489625D01*
X100509739Y-60395874D01*
X100509736Y-60395873D01*
X100247600Y-60338849D01*
X100247601Y-60338849D01*
X100247595Y-60338848D01*
X100247593Y-60338848D01*
X99980000Y-60319709D01*
X99712407Y-60338848D01*
X99712404Y-60338848D01*
X99712398Y-60338849D01*
X99450263Y-60395873D01*
X99450260Y-60395874D01*
X99198901Y-60489625D01*
X99198898Y-60489626D01*
X99009180Y-60593221D01*
X98963438Y-60618199D01*
X98963436Y-60618200D01*
X98949147Y-60626003D01*
X98816072Y-60675638D01*
X98674404Y-60685771D01*
X98535619Y-60655581D01*
X98470853Y-60626003D01*
X98456563Y-60618200D01*
X98456562Y-60618199D01*
X98388807Y-60581202D01*
X98221101Y-60489626D01*
X98221098Y-60489625D01*
X97969739Y-60395874D01*
X97969736Y-60395873D01*
X97707600Y-60338849D01*
X97707601Y-60338849D01*
X97707595Y-60338848D01*
X97707593Y-60338848D01*
X97440000Y-60319709D01*
X97172407Y-60338848D01*
X97172404Y-60338848D01*
X97172398Y-60338849D01*
X96910263Y-60395873D01*
X96910260Y-60395874D01*
X96658901Y-60489625D01*
X96658898Y-60489626D01*
X96469180Y-60593221D01*
X96423438Y-60618199D01*
X96423436Y-60618200D01*
X96409147Y-60626003D01*
X96276072Y-60675638D01*
X96134404Y-60685771D01*
X95995619Y-60655581D01*
X95930853Y-60626003D01*
X95916563Y-60618200D01*
X95916562Y-60618199D01*
X95848807Y-60581202D01*
X95681101Y-60489626D01*
X95681098Y-60489625D01*
X95429739Y-60395874D01*
X95429736Y-60395873D01*
X95167600Y-60338849D01*
X95167601Y-60338849D01*
X95167595Y-60338848D01*
X95167593Y-60338848D01*
X94900000Y-60319709D01*
X94632407Y-60338848D01*
X94632404Y-60338848D01*
X94632398Y-60338849D01*
X94370263Y-60395873D01*
X94370260Y-60395874D01*
X94118901Y-60489625D01*
X94118898Y-60489626D01*
X93929180Y-60593221D01*
X93883438Y-60618199D01*
X93883436Y-60618200D01*
X93869147Y-60626003D01*
X93736072Y-60675638D01*
X93594404Y-60685771D01*
X93455619Y-60655581D01*
X93390853Y-60626003D01*
X93376563Y-60618200D01*
X93376562Y-60618199D01*
X93308807Y-60581202D01*
X93141101Y-60489626D01*
X93141098Y-60489625D01*
X92889739Y-60395874D01*
X92889736Y-60395873D01*
X92627600Y-60338849D01*
X92627601Y-60338849D01*
X92627595Y-60338848D01*
X92627593Y-60338848D01*
X92360000Y-60319709D01*
X92092407Y-60338848D01*
X92092404Y-60338848D01*
X92092398Y-60338849D01*
X91830263Y-60395873D01*
X91830260Y-60395874D01*
X91578901Y-60489625D01*
X91578898Y-60489626D01*
X91389180Y-60593221D01*
X91343438Y-60618199D01*
X91343436Y-60618200D01*
X91329147Y-60626003D01*
X91196072Y-60675638D01*
X91054404Y-60685771D01*
X90915619Y-60655581D01*
X90850853Y-60626003D01*
X90836563Y-60618200D01*
X90836562Y-60618199D01*
X90768807Y-60581202D01*
X90601101Y-60489626D01*
X90601098Y-60489625D01*
X90349739Y-60395874D01*
X90349736Y-60395873D01*
X90087600Y-60338849D01*
X90087601Y-60338849D01*
X90087595Y-60338848D01*
X90087593Y-60338848D01*
X89820000Y-60319709D01*
X89552407Y-60338848D01*
X89552404Y-60338848D01*
X89552398Y-60338849D01*
X89272847Y-60399662D01*
X89272424Y-60397718D01*
X89154468Y-60414670D01*
X89013885Y-60394448D01*
X88884693Y-60335438D01*
X88777360Y-60242421D01*
X88700580Y-60122933D01*
X88660575Y-59986654D01*
X88655500Y-59915670D01*
X88655500Y-57105765D01*
X88656006Y-57089884D01*
X88660162Y-57024700D01*
X88660162Y-57024699D01*
X88649305Y-56922793D01*
X88640616Y-56820699D01*
X88638164Y-56806403D01*
X88638132Y-56806235D01*
X88638109Y-56806104D01*
X88635356Y-56791863D01*
X88607433Y-56693259D01*
X88581617Y-56594110D01*
X88581614Y-56594103D01*
X88576718Y-56580247D01*
X88571564Y-56566589D01*
X88527376Y-56474116D01*
X88485171Y-56380748D01*
X88478077Y-56368050D01*
X88478034Y-56367976D01*
X88477993Y-56367903D01*
X88470608Y-56355316D01*
X88411434Y-56271651D01*
X88411433Y-56271649D01*
X88354057Y-56186759D01*
X88354049Y-56186751D01*
X88344826Y-56175328D01*
X88335403Y-56164151D01*
X88262944Y-56091692D01*
X88192046Y-56017718D01*
X88172346Y-56000380D01*
X88160775Y-55989524D01*
X77844208Y-45672957D01*
X77833351Y-45661385D01*
X77790203Y-45612359D01*
X77710480Y-45547987D01*
X77632134Y-45481931D01*
X77620213Y-45473500D01*
X77608024Y-45465261D01*
X77518590Y-45415301D01*
X77430185Y-45363422D01*
X77417019Y-45357131D01*
X77403615Y-45351072D01*
X77307011Y-45316939D01*
X77211120Y-45280752D01*
X77197079Y-45276777D01*
X77197060Y-45276772D01*
X77197011Y-45276758D01*
X77182857Y-45273072D01*
X77113729Y-45261218D01*
X77081848Y-45255752D01*
X77056696Y-45250887D01*
X76981244Y-45236295D01*
X76966597Y-45234735D01*
X76952079Y-45233500D01*
X76952072Y-45233500D01*
X76849594Y-45233500D01*
X76847370Y-45233452D01*
X76747148Y-45231324D01*
X76720969Y-45232994D01*
X76705087Y-45233500D01*
X66239581Y-45233500D01*
X66098996Y-45213287D01*
X65969801Y-45154286D01*
X65929996Y-45123970D01*
X65929377Y-45124772D01*
X65914947Y-45113629D01*
X65685982Y-44962148D01*
X65685979Y-44962146D01*
X65437399Y-44845617D01*
X65289979Y-44801265D01*
X65174499Y-44766522D01*
X64902893Y-44726550D01*
X64902889Y-44726550D01*
X64247433Y-44726550D01*
X64226192Y-44728104D01*
X64042180Y-44741572D01*
X64042174Y-44741573D01*
X63774208Y-44801265D01*
X63517785Y-44899337D01*
X63278365Y-45033706D01*
X63163367Y-45122506D01*
X63039741Y-45192430D01*
X62901424Y-45224691D01*
X62858391Y-45226550D01*
X62161714Y-45226550D01*
X62145836Y-45226044D01*
X62080649Y-45221888D01*
X62080640Y-45221888D01*
X61978743Y-45232744D01*
X61876644Y-45241434D01*
X61862215Y-45243907D01*
X61847827Y-45246690D01*
X61803545Y-45259229D01*
X61749209Y-45274616D01*
X61692879Y-45289283D01*
X61650054Y-45300434D01*
X61636231Y-45305317D01*
X61622534Y-45310488D01*
X61609034Y-45316939D01*
X61530066Y-45354673D01*
X61510703Y-45363426D01*
X61436699Y-45396877D01*
X61423887Y-45404034D01*
X61411273Y-45411437D01*
X61327600Y-45470615D01*
X61242706Y-45527994D01*
X61231288Y-45537213D01*
X61220104Y-45546642D01*
X61147642Y-45619105D01*
X61073667Y-45690004D01*
X61056324Y-45709709D01*
X61045458Y-45721290D01*
X59261970Y-47504777D01*
X59250385Y-47515648D01*
X59201361Y-47558795D01*
X59136986Y-47638520D01*
X59070930Y-47716867D01*
X59062454Y-47728850D01*
X59054266Y-47740966D01*
X59004301Y-47830408D01*
X58952425Y-47918808D01*
X58946121Y-47932001D01*
X58940077Y-47945373D01*
X58940074Y-47945380D01*
X58940074Y-47945381D01*
X58936067Y-47956722D01*
X58905940Y-48041986D01*
X58869750Y-48137887D01*
X58865769Y-48151943D01*
X58862070Y-48166149D01*
X58844752Y-48267151D01*
X58825294Y-48367758D01*
X58823741Y-48382333D01*
X58822500Y-48396928D01*
X58822500Y-48499405D01*
X58820325Y-48601848D01*
X58821994Y-48628012D01*
X58822500Y-48643899D01*
X58822500Y-49394394D01*
X58802287Y-49534979D01*
X58743286Y-49664174D01*
X58693115Y-49726430D01*
X58694317Y-49727471D01*
X58682652Y-49740932D01*
X58511207Y-49969956D01*
X58511202Y-49969963D01*
X58374097Y-50221053D01*
X58274121Y-50489099D01*
X58213311Y-50768636D01*
X58213310Y-50768642D01*
X58213310Y-50768645D01*
X58192901Y-51054000D01*
X56931500Y-51054000D01*
X56931500Y-38700000D01*
X77779709Y-38700000D01*
X77798849Y-38967601D01*
X77855873Y-39229736D01*
X77855874Y-39229739D01*
X77949625Y-39481098D01*
X77949626Y-39481100D01*
X77949627Y-39481101D01*
X78078199Y-39716562D01*
X78238971Y-39931329D01*
X78428671Y-40121029D01*
X78643438Y-40281801D01*
X78878895Y-40410371D01*
X78878899Y-40410373D01*
X78878901Y-40410374D01*
X78951376Y-40437405D01*
X79130261Y-40504126D01*
X79392407Y-40561152D01*
X79660000Y-40580291D01*
X79927593Y-40561152D01*
X80189739Y-40504126D01*
X80441101Y-40410373D01*
X80676562Y-40281801D01*
X80676566Y-40281797D01*
X80690852Y-40273997D01*
X80823927Y-40224361D01*
X80965595Y-40214228D01*
X81104379Y-40244418D01*
X81169148Y-40273997D01*
X81183433Y-40281797D01*
X81183438Y-40281801D01*
X81315596Y-40353965D01*
X81418894Y-40410371D01*
X81418901Y-40410374D01*
X81491376Y-40437405D01*
X81670261Y-40504126D01*
X81932407Y-40561152D01*
X82200000Y-40580291D01*
X82467593Y-40561152D01*
X82729739Y-40504126D01*
X82981101Y-40410373D01*
X83216562Y-40281801D01*
X83216566Y-40281797D01*
X83230852Y-40273997D01*
X83363927Y-40224361D01*
X83505595Y-40214228D01*
X83644379Y-40244418D01*
X83709148Y-40273997D01*
X83723433Y-40281797D01*
X83723438Y-40281801D01*
X83855596Y-40353965D01*
X83958894Y-40410371D01*
X83958901Y-40410374D01*
X84031376Y-40437405D01*
X84210261Y-40504126D01*
X84472407Y-40561152D01*
X84740000Y-40580291D01*
X85007593Y-40561152D01*
X85269739Y-40504126D01*
X85521101Y-40410373D01*
X85756562Y-40281801D01*
X85756566Y-40281797D01*
X85770852Y-40273997D01*
X85903927Y-40224361D01*
X86045595Y-40214228D01*
X86184379Y-40244418D01*
X86249148Y-40273997D01*
X86263433Y-40281797D01*
X86263438Y-40281801D01*
X86395596Y-40353965D01*
X86498894Y-40410371D01*
X86498901Y-40410374D01*
X86571376Y-40437405D01*
X86750261Y-40504126D01*
X87012407Y-40561152D01*
X87280000Y-40580291D01*
X87547593Y-40561152D01*
X87809739Y-40504126D01*
X88061101Y-40410373D01*
X88296562Y-40281801D01*
X88296566Y-40281797D01*
X88310852Y-40273997D01*
X88443927Y-40224361D01*
X88585595Y-40214228D01*
X88724379Y-40244418D01*
X88789148Y-40273997D01*
X88803433Y-40281797D01*
X88803438Y-40281801D01*
X88935596Y-40353965D01*
X89038894Y-40410371D01*
X89038901Y-40410374D01*
X89111376Y-40437405D01*
X89290261Y-40504126D01*
X89552407Y-40561152D01*
X89820000Y-40580291D01*
X90087593Y-40561152D01*
X90349739Y-40504126D01*
X90601101Y-40410373D01*
X90836562Y-40281801D01*
X90836566Y-40281797D01*
X90850852Y-40273997D01*
X90983927Y-40224361D01*
X91125595Y-40214228D01*
X91264379Y-40244418D01*
X91329148Y-40273997D01*
X91343433Y-40281797D01*
X91343438Y-40281801D01*
X91475596Y-40353965D01*
X91578894Y-40410371D01*
X91578901Y-40410374D01*
X91651376Y-40437405D01*
X91830261Y-40504126D01*
X92092407Y-40561152D01*
X92360000Y-40580291D01*
X92627593Y-40561152D01*
X92889739Y-40504126D01*
X93141101Y-40410373D01*
X93376562Y-40281801D01*
X93376566Y-40281797D01*
X93390852Y-40273997D01*
X93523927Y-40224361D01*
X93665595Y-40214228D01*
X93804379Y-40244418D01*
X93869148Y-40273997D01*
X93883433Y-40281797D01*
X93883438Y-40281801D01*
X94015596Y-40353965D01*
X94118894Y-40410371D01*
X94118901Y-40410374D01*
X94191376Y-40437405D01*
X94370261Y-40504126D01*
X94632407Y-40561152D01*
X94900000Y-40580291D01*
X95167593Y-40561152D01*
X95429739Y-40504126D01*
X95681101Y-40410373D01*
X95916562Y-40281801D01*
X95916566Y-40281797D01*
X95930852Y-40273997D01*
X96063927Y-40224361D01*
X96205595Y-40214228D01*
X96344379Y-40244418D01*
X96409148Y-40273997D01*
X96423433Y-40281797D01*
X96423438Y-40281801D01*
X96555596Y-40353965D01*
X96658894Y-40410371D01*
X96658901Y-40410374D01*
X96731376Y-40437405D01*
X96910261Y-40504126D01*
X97172407Y-40561152D01*
X97440000Y-40580291D01*
X97707593Y-40561152D01*
X97969739Y-40504126D01*
X98221101Y-40410373D01*
X98456562Y-40281801D01*
X98456566Y-40281797D01*
X98470852Y-40273997D01*
X98603927Y-40224361D01*
X98745595Y-40214228D01*
X98884379Y-40244418D01*
X98949148Y-40273997D01*
X98963433Y-40281797D01*
X98963438Y-40281801D01*
X99095596Y-40353965D01*
X99198894Y-40410371D01*
X99198901Y-40410374D01*
X99271376Y-40437405D01*
X99450261Y-40504126D01*
X99712407Y-40561152D01*
X99980000Y-40580291D01*
X100247593Y-40561152D01*
X100509739Y-40504126D01*
X100761101Y-40410373D01*
X100996562Y-40281801D01*
X100996566Y-40281797D01*
X101010852Y-40273997D01*
X101143927Y-40224361D01*
X101285595Y-40214228D01*
X101424379Y-40244418D01*
X101489148Y-40273997D01*
X101503433Y-40281797D01*
X101503438Y-40281801D01*
X101635596Y-40353965D01*
X101738894Y-40410371D01*
X101738901Y-40410374D01*
X101811376Y-40437405D01*
X101990261Y-40504126D01*
X102252407Y-40561152D01*
X102520000Y-40580291D01*
X102787593Y-40561152D01*
X103049739Y-40504126D01*
X103301101Y-40410373D01*
X103536562Y-40281801D01*
X103536566Y-40281797D01*
X103550852Y-40273997D01*
X103683927Y-40224361D01*
X103825595Y-40214228D01*
X103964379Y-40244418D01*
X104029148Y-40273997D01*
X104043433Y-40281797D01*
X104043438Y-40281801D01*
X104175596Y-40353965D01*
X104278894Y-40410371D01*
X104278901Y-40410374D01*
X104351376Y-40437405D01*
X104530261Y-40504126D01*
X104792407Y-40561152D01*
X105060000Y-40580291D01*
X105327593Y-40561152D01*
X105589739Y-40504126D01*
X105841101Y-40410373D01*
X106076562Y-40281801D01*
X106076566Y-40281797D01*
X106090852Y-40273997D01*
X106223927Y-40224361D01*
X106365595Y-40214228D01*
X106504379Y-40244418D01*
X106569148Y-40273997D01*
X106583433Y-40281797D01*
X106583438Y-40281801D01*
X106715596Y-40353965D01*
X106818894Y-40410371D01*
X106818901Y-40410374D01*
X106891376Y-40437405D01*
X107070261Y-40504126D01*
X107332407Y-40561152D01*
X107600000Y-40580291D01*
X107867593Y-40561152D01*
X108129739Y-40504126D01*
X108381101Y-40410373D01*
X108616562Y-40281801D01*
X108616566Y-40281797D01*
X108630852Y-40273997D01*
X108763927Y-40224361D01*
X108905595Y-40214228D01*
X109044379Y-40244418D01*
X109109148Y-40273997D01*
X109123433Y-40281797D01*
X109123438Y-40281801D01*
X109255596Y-40353965D01*
X109358894Y-40410371D01*
X109358901Y-40410374D01*
X109431376Y-40437405D01*
X109610261Y-40504126D01*
X109872407Y-40561152D01*
X110140000Y-40580291D01*
X110407593Y-40561152D01*
X110669739Y-40504126D01*
X110921101Y-40410373D01*
X111156562Y-40281801D01*
X111156566Y-40281797D01*
X111170852Y-40273997D01*
X111303927Y-40224361D01*
X111445595Y-40214228D01*
X111584379Y-40244418D01*
X111649148Y-40273997D01*
X111663433Y-40281797D01*
X111663438Y-40281801D01*
X111795596Y-40353965D01*
X111898894Y-40410371D01*
X111898901Y-40410374D01*
X111971376Y-40437405D01*
X112150261Y-40504126D01*
X112412407Y-40561152D01*
X112680000Y-40580291D01*
X112947593Y-40561152D01*
X113209739Y-40504126D01*
X113461101Y-40410373D01*
X113696562Y-40281801D01*
X113696566Y-40281797D01*
X113710852Y-40273997D01*
X113843927Y-40224361D01*
X113985595Y-40214228D01*
X114124379Y-40244418D01*
X114189148Y-40273997D01*
X114203433Y-40281797D01*
X114203438Y-40281801D01*
X114335596Y-40353965D01*
X114438894Y-40410371D01*
X114438901Y-40410374D01*
X114511376Y-40437405D01*
X114690261Y-40504126D01*
X114952407Y-40561152D01*
X115220000Y-40580291D01*
X115487593Y-40561152D01*
X115749739Y-40504126D01*
X116001101Y-40410373D01*
X116236562Y-40281801D01*
X116236566Y-40281797D01*
X116250852Y-40273997D01*
X116383927Y-40224361D01*
X116525595Y-40214228D01*
X116664379Y-40244418D01*
X116729148Y-40273997D01*
X116743433Y-40281797D01*
X116743438Y-40281801D01*
X116875596Y-40353965D01*
X116978894Y-40410371D01*
X116978901Y-40410374D01*
X117051376Y-40437405D01*
X117230261Y-40504126D01*
X117492407Y-40561152D01*
X117760000Y-40580291D01*
X118027593Y-40561152D01*
X118289739Y-40504126D01*
X118541101Y-40410373D01*
X118776562Y-40281801D01*
X118776566Y-40281797D01*
X118790852Y-40273997D01*
X118923927Y-40224361D01*
X119065595Y-40214228D01*
X119204379Y-40244418D01*
X119269148Y-40273997D01*
X119283433Y-40281797D01*
X119283438Y-40281801D01*
X119415596Y-40353965D01*
X119518894Y-40410371D01*
X119518901Y-40410374D01*
X119591376Y-40437405D01*
X119770261Y-40504126D01*
X120032407Y-40561152D01*
X120300000Y-40580291D01*
X120567593Y-40561152D01*
X120829739Y-40504126D01*
X121081101Y-40410373D01*
X121316562Y-40281801D01*
X121316566Y-40281797D01*
X121330852Y-40273997D01*
X121463927Y-40224361D01*
X121605595Y-40214228D01*
X121744379Y-40244418D01*
X121809148Y-40273997D01*
X121823433Y-40281797D01*
X121823438Y-40281801D01*
X121955596Y-40353965D01*
X122058894Y-40410371D01*
X122058901Y-40410374D01*
X122131376Y-40437405D01*
X122310261Y-40504126D01*
X122572407Y-40561152D01*
X122840000Y-40580291D01*
X123107593Y-40561152D01*
X123369739Y-40504126D01*
X123621101Y-40410373D01*
X123856562Y-40281801D01*
X124071329Y-40121029D01*
X124261029Y-39931329D01*
X124421801Y-39716562D01*
X124550373Y-39481101D01*
X124644126Y-39229739D01*
X124701152Y-38967593D01*
X124720291Y-38700000D01*
X124701152Y-38432407D01*
X124644126Y-38170261D01*
X124550373Y-37918899D01*
X124421801Y-37683438D01*
X124261029Y-37468671D01*
X124071329Y-37278971D01*
X123856562Y-37118199D01*
X123705280Y-37035592D01*
X123621100Y-36989626D01*
X123621098Y-36989625D01*
X123369739Y-36895874D01*
X123369736Y-36895873D01*
X123107600Y-36838849D01*
X123107601Y-36838849D01*
X123107595Y-36838848D01*
X123107593Y-36838848D01*
X122840000Y-36819709D01*
X122572407Y-36838848D01*
X122572404Y-36838848D01*
X122572398Y-36838849D01*
X122310263Y-36895873D01*
X122310260Y-36895874D01*
X122058901Y-36989625D01*
X122058898Y-36989626D01*
X121869180Y-37093221D01*
X121823438Y-37118199D01*
X121823436Y-37118200D01*
X121809147Y-37126003D01*
X121676072Y-37175638D01*
X121534404Y-37185771D01*
X121395619Y-37155581D01*
X121330853Y-37126003D01*
X121316563Y-37118200D01*
X121316562Y-37118199D01*
X121248807Y-37081202D01*
X121081101Y-36989626D01*
X121081098Y-36989625D01*
X120829739Y-36895874D01*
X120829736Y-36895873D01*
X120567600Y-36838849D01*
X120567601Y-36838849D01*
X120567595Y-36838848D01*
X120567593Y-36838848D01*
X120300000Y-36819709D01*
X120032407Y-36838848D01*
X120032404Y-36838848D01*
X120032398Y-36838849D01*
X119770263Y-36895873D01*
X119770260Y-36895874D01*
X119518901Y-36989625D01*
X119518898Y-36989626D01*
X119329180Y-37093221D01*
X119283438Y-37118199D01*
X119283436Y-37118200D01*
X119269147Y-37126003D01*
X119136072Y-37175638D01*
X118994404Y-37185771D01*
X118855619Y-37155581D01*
X118790853Y-37126003D01*
X118776563Y-37118200D01*
X118776562Y-37118199D01*
X118708807Y-37081202D01*
X118541101Y-36989626D01*
X118541098Y-36989625D01*
X118289739Y-36895874D01*
X118289736Y-36895873D01*
X118027600Y-36838849D01*
X118027601Y-36838849D01*
X118027595Y-36838848D01*
X118027593Y-36838848D01*
X117760000Y-36819709D01*
X117492407Y-36838848D01*
X117492404Y-36838848D01*
X117492398Y-36838849D01*
X117230263Y-36895873D01*
X117230260Y-36895874D01*
X116978901Y-36989625D01*
X116978898Y-36989626D01*
X116789180Y-37093221D01*
X116743438Y-37118199D01*
X116743436Y-37118200D01*
X116729147Y-37126003D01*
X116596072Y-37175638D01*
X116454404Y-37185771D01*
X116315619Y-37155581D01*
X116250853Y-37126003D01*
X116236563Y-37118200D01*
X116236562Y-37118199D01*
X116168807Y-37081202D01*
X116001101Y-36989626D01*
X116001098Y-36989625D01*
X115749739Y-36895874D01*
X115749736Y-36895873D01*
X115487600Y-36838849D01*
X115487601Y-36838849D01*
X115487595Y-36838848D01*
X115487593Y-36838848D01*
X115220000Y-36819709D01*
X114952407Y-36838848D01*
X114952404Y-36838848D01*
X114952398Y-36838849D01*
X114690263Y-36895873D01*
X114690260Y-36895874D01*
X114438901Y-36989625D01*
X114438898Y-36989626D01*
X114249180Y-37093221D01*
X114203438Y-37118199D01*
X114203436Y-37118200D01*
X114189147Y-37126003D01*
X114056072Y-37175638D01*
X113914404Y-37185771D01*
X113775619Y-37155581D01*
X113710853Y-37126003D01*
X113696563Y-37118200D01*
X113696562Y-37118199D01*
X113628807Y-37081202D01*
X113461101Y-36989626D01*
X113461098Y-36989625D01*
X113209739Y-36895874D01*
X113209736Y-36895873D01*
X112947600Y-36838849D01*
X112947601Y-36838849D01*
X112947595Y-36838848D01*
X112947593Y-36838848D01*
X112680000Y-36819709D01*
X112412407Y-36838848D01*
X112412404Y-36838848D01*
X112412398Y-36838849D01*
X112150263Y-36895873D01*
X112150260Y-36895874D01*
X111898901Y-36989625D01*
X111898898Y-36989626D01*
X111709180Y-37093221D01*
X111663438Y-37118199D01*
X111663436Y-37118200D01*
X111649147Y-37126003D01*
X111516072Y-37175638D01*
X111374404Y-37185771D01*
X111235619Y-37155581D01*
X111170853Y-37126003D01*
X111156563Y-37118200D01*
X111156562Y-37118199D01*
X111088807Y-37081202D01*
X110921101Y-36989626D01*
X110921098Y-36989625D01*
X110669739Y-36895874D01*
X110669736Y-36895873D01*
X110407600Y-36838849D01*
X110407601Y-36838849D01*
X110407595Y-36838848D01*
X110407593Y-36838848D01*
X110140000Y-36819709D01*
X109872407Y-36838848D01*
X109872404Y-36838848D01*
X109872398Y-36838849D01*
X109610263Y-36895873D01*
X109610260Y-36895874D01*
X109358901Y-36989625D01*
X109358898Y-36989626D01*
X109169180Y-37093221D01*
X109123438Y-37118199D01*
X109123436Y-37118200D01*
X109109147Y-37126003D01*
X108976072Y-37175638D01*
X108834404Y-37185771D01*
X108695619Y-37155581D01*
X108630853Y-37126003D01*
X108616563Y-37118200D01*
X108616562Y-37118199D01*
X108548807Y-37081202D01*
X108381101Y-36989626D01*
X108381098Y-36989625D01*
X108129739Y-36895874D01*
X108129736Y-36895873D01*
X107867600Y-36838849D01*
X107867601Y-36838849D01*
X107867595Y-36838848D01*
X107867593Y-36838848D01*
X107600000Y-36819709D01*
X107332407Y-36838848D01*
X107332404Y-36838848D01*
X107332398Y-36838849D01*
X107070263Y-36895873D01*
X107070260Y-36895874D01*
X106818901Y-36989625D01*
X106818898Y-36989626D01*
X106629180Y-37093221D01*
X106583438Y-37118199D01*
X106583436Y-37118200D01*
X106569147Y-37126003D01*
X106436072Y-37175638D01*
X106294404Y-37185771D01*
X106155619Y-37155581D01*
X106090853Y-37126003D01*
X106076563Y-37118200D01*
X106076562Y-37118199D01*
X106008807Y-37081202D01*
X105841101Y-36989626D01*
X105841098Y-36989625D01*
X105589739Y-36895874D01*
X105589736Y-36895873D01*
X105327600Y-36838849D01*
X105327601Y-36838849D01*
X105327595Y-36838848D01*
X105327593Y-36838848D01*
X105060000Y-36819709D01*
X104792407Y-36838848D01*
X104792404Y-36838848D01*
X104792398Y-36838849D01*
X104530263Y-36895873D01*
X104530260Y-36895874D01*
X104278901Y-36989625D01*
X104278898Y-36989626D01*
X104089180Y-37093221D01*
X104043438Y-37118199D01*
X104043436Y-37118200D01*
X104029147Y-37126003D01*
X103896072Y-37175638D01*
X103754404Y-37185771D01*
X103615619Y-37155581D01*
X103550853Y-37126003D01*
X103536563Y-37118200D01*
X103536562Y-37118199D01*
X103468807Y-37081202D01*
X103301101Y-36989626D01*
X103301098Y-36989625D01*
X103049739Y-36895874D01*
X103049736Y-36895873D01*
X102787600Y-36838849D01*
X102787601Y-36838849D01*
X102787595Y-36838848D01*
X102787593Y-36838848D01*
X102520000Y-36819709D01*
X102252407Y-36838848D01*
X102252404Y-36838848D01*
X102252398Y-36838849D01*
X101990263Y-36895873D01*
X101990260Y-36895874D01*
X101738901Y-36989625D01*
X101738898Y-36989626D01*
X101549180Y-37093221D01*
X101503438Y-37118199D01*
X101503436Y-37118200D01*
X101489147Y-37126003D01*
X101356072Y-37175638D01*
X101214404Y-37185771D01*
X101075619Y-37155581D01*
X101010853Y-37126003D01*
X100996563Y-37118200D01*
X100996562Y-37118199D01*
X100928807Y-37081202D01*
X100761101Y-36989626D01*
X100761098Y-36989625D01*
X100509739Y-36895874D01*
X100509736Y-36895873D01*
X100247600Y-36838849D01*
X100247601Y-36838849D01*
X100247595Y-36838848D01*
X100247593Y-36838848D01*
X99980000Y-36819709D01*
X99712407Y-36838848D01*
X99712404Y-36838848D01*
X99712398Y-36838849D01*
X99450263Y-36895873D01*
X99450260Y-36895874D01*
X99198901Y-36989625D01*
X99198898Y-36989626D01*
X99009180Y-37093221D01*
X98963438Y-37118199D01*
X98963436Y-37118200D01*
X98949147Y-37126003D01*
X98816072Y-37175638D01*
X98674404Y-37185771D01*
X98535619Y-37155581D01*
X98470853Y-37126003D01*
X98456563Y-37118200D01*
X98456562Y-37118199D01*
X98388807Y-37081202D01*
X98221101Y-36989626D01*
X98221098Y-36989625D01*
X97969739Y-36895874D01*
X97969736Y-36895873D01*
X97707600Y-36838849D01*
X97707601Y-36838849D01*
X97707595Y-36838848D01*
X97707593Y-36838848D01*
X97440000Y-36819709D01*
X97172407Y-36838848D01*
X97172404Y-36838848D01*
X97172398Y-36838849D01*
X96910263Y-36895873D01*
X96910260Y-36895874D01*
X96658901Y-36989625D01*
X96658898Y-36989626D01*
X96469180Y-37093221D01*
X96423438Y-37118199D01*
X96423436Y-37118200D01*
X96409147Y-37126003D01*
X96276072Y-37175638D01*
X96134404Y-37185771D01*
X95995619Y-37155581D01*
X95930853Y-37126003D01*
X95916563Y-37118200D01*
X95916562Y-37118199D01*
X95848807Y-37081202D01*
X95681101Y-36989626D01*
X95681098Y-36989625D01*
X95429739Y-36895874D01*
X95429736Y-36895873D01*
X95167600Y-36838849D01*
X95167601Y-36838849D01*
X95167595Y-36838848D01*
X95167593Y-36838848D01*
X94900000Y-36819709D01*
X94632407Y-36838848D01*
X94632404Y-36838848D01*
X94632398Y-36838849D01*
X94370263Y-36895873D01*
X94370260Y-36895874D01*
X94118901Y-36989625D01*
X94118898Y-36989626D01*
X93929180Y-37093221D01*
X93883438Y-37118199D01*
X93883436Y-37118200D01*
X93869147Y-37126003D01*
X93736072Y-37175638D01*
X93594404Y-37185771D01*
X93455619Y-37155581D01*
X93390853Y-37126003D01*
X93376563Y-37118200D01*
X93376562Y-37118199D01*
X93308807Y-37081202D01*
X93141101Y-36989626D01*
X93141098Y-36989625D01*
X92889739Y-36895874D01*
X92889736Y-36895873D01*
X92627600Y-36838849D01*
X92627601Y-36838849D01*
X92627595Y-36838848D01*
X92627593Y-36838848D01*
X92360000Y-36819709D01*
X92092407Y-36838848D01*
X92092404Y-36838848D01*
X92092398Y-36838849D01*
X91830263Y-36895873D01*
X91830260Y-36895874D01*
X91578901Y-36989625D01*
X91578898Y-36989626D01*
X91389180Y-37093221D01*
X91343438Y-37118199D01*
X91343436Y-37118200D01*
X91329147Y-37126003D01*
X91196072Y-37175638D01*
X91054404Y-37185771D01*
X90915619Y-37155581D01*
X90850853Y-37126003D01*
X90836563Y-37118200D01*
X90836562Y-37118199D01*
X90768807Y-37081202D01*
X90601101Y-36989626D01*
X90601098Y-36989625D01*
X90349739Y-36895874D01*
X90349736Y-36895873D01*
X90087600Y-36838849D01*
X90087601Y-36838849D01*
X90087595Y-36838848D01*
X90087593Y-36838848D01*
X89820000Y-36819709D01*
X89552407Y-36838848D01*
X89552404Y-36838848D01*
X89552398Y-36838849D01*
X89290263Y-36895873D01*
X89290260Y-36895874D01*
X89038901Y-36989625D01*
X89038898Y-36989626D01*
X88849180Y-37093221D01*
X88803438Y-37118199D01*
X88803436Y-37118200D01*
X88789147Y-37126003D01*
X88656072Y-37175638D01*
X88514404Y-37185771D01*
X88375619Y-37155581D01*
X88310853Y-37126003D01*
X88296563Y-37118200D01*
X88296562Y-37118199D01*
X88228807Y-37081202D01*
X88061101Y-36989626D01*
X88061098Y-36989625D01*
X87809739Y-36895874D01*
X87809736Y-36895873D01*
X87547600Y-36838849D01*
X87547601Y-36838849D01*
X87547595Y-36838848D01*
X87547593Y-36838848D01*
X87280000Y-36819709D01*
X87012407Y-36838848D01*
X87012404Y-36838848D01*
X87012398Y-36838849D01*
X86750263Y-36895873D01*
X86750260Y-36895874D01*
X86498901Y-36989625D01*
X86498898Y-36989626D01*
X86309180Y-37093221D01*
X86263438Y-37118199D01*
X86263436Y-37118200D01*
X86249147Y-37126003D01*
X86116072Y-37175638D01*
X85974404Y-37185771D01*
X85835619Y-37155581D01*
X85770853Y-37126003D01*
X85756563Y-37118200D01*
X85756562Y-37118199D01*
X85688807Y-37081202D01*
X85521101Y-36989626D01*
X85521098Y-36989625D01*
X85269739Y-36895874D01*
X85269736Y-36895873D01*
X85007600Y-36838849D01*
X85007601Y-36838849D01*
X85007595Y-36838848D01*
X85007593Y-36838848D01*
X84740000Y-36819709D01*
X84472407Y-36838848D01*
X84472404Y-36838848D01*
X84472398Y-36838849D01*
X84210263Y-36895873D01*
X84210260Y-36895874D01*
X83958901Y-36989625D01*
X83958898Y-36989626D01*
X83769180Y-37093221D01*
X83723438Y-37118199D01*
X83723436Y-37118200D01*
X83709147Y-37126003D01*
X83576072Y-37175638D01*
X83434404Y-37185771D01*
X83295619Y-37155581D01*
X83230853Y-37126003D01*
X83216563Y-37118200D01*
X83216562Y-37118199D01*
X83148807Y-37081202D01*
X82981101Y-36989626D01*
X82981098Y-36989625D01*
X82729739Y-36895874D01*
X82729736Y-36895873D01*
X82467600Y-36838849D01*
X82467601Y-36838849D01*
X82467595Y-36838848D01*
X82467593Y-36838848D01*
X82200000Y-36819709D01*
X81932407Y-36838848D01*
X81932404Y-36838848D01*
X81932398Y-36838849D01*
X81670263Y-36895873D01*
X81670260Y-36895874D01*
X81418901Y-36989625D01*
X81418898Y-36989626D01*
X81229180Y-37093221D01*
X81183438Y-37118199D01*
X81183436Y-37118200D01*
X81169147Y-37126003D01*
X81036072Y-37175638D01*
X80894404Y-37185771D01*
X80755619Y-37155581D01*
X80690853Y-37126003D01*
X80676563Y-37118200D01*
X80676562Y-37118199D01*
X80608807Y-37081202D01*
X80441101Y-36989626D01*
X80441098Y-36989625D01*
X80189739Y-36895874D01*
X80189736Y-36895873D01*
X79927600Y-36838849D01*
X79927601Y-36838849D01*
X79927595Y-36838848D01*
X79927593Y-36838848D01*
X79660000Y-36819709D01*
X79392407Y-36838848D01*
X79392404Y-36838848D01*
X79392398Y-36838849D01*
X79130263Y-36895873D01*
X79130260Y-36895874D01*
X78878901Y-36989625D01*
X78878899Y-36989626D01*
X78643433Y-37118202D01*
X78428668Y-37278973D01*
X78238973Y-37468668D01*
X78078202Y-37683433D01*
X77949626Y-37918899D01*
X77949625Y-37918901D01*
X77855874Y-38170260D01*
X77855873Y-38170263D01*
X77798849Y-38432398D01*
X77779709Y-38700000D01*
X56931500Y-38700000D01*
X56931500Y-34812500D01*
X56951713Y-34671915D01*
X57010714Y-34542720D01*
X57103724Y-34435381D01*
X57223208Y-34358594D01*
X57359485Y-34318579D01*
X57430500Y-34313500D01*
X141890500Y-34313500D01*
X142031085Y-34333713D01*
G37*
%TD.AperFunction*%
%TD*%
M02*
