M48
; DRILL file {KiCad 7.0.9} date Thu Nov 23 08:59:27 2023
; FORMAT={-:-/ absolute / inch / decimal}
; #@! TF.CreationDate,2023-11-23T08:59:27-03:00
; #@! TF.GenerationSoftware,Kicad,Pcbnew,7.0.9
; #@! TF.FileFunction,Plated,1,2,PTH
FMAT,2
INCH
; #@! TA.AperFunction,Plated,PTH,ComponentDrill
T1C0.0276
; #@! TA.AperFunction,Plated,PTH,ComponentDrill
T2C0.0315
; #@! TA.AperFunction,Plated,PTH,ComponentDrill
T3C0.0315
; #@! TA.AperFunction,Plated,PTH,ComponentDrill
T4C0.0394
; #@! TA.AperFunction,Plated,PTH,ComponentDrill
T5C0.0394
%
G90
G05
T1
X5.2366Y-2.6814
X5.3366Y-2.6814
X5.4366Y-2.6814
T2
X4.9966Y-2.45
X5.095Y-2.45
X5.3366Y-2.415
X5.435Y-2.415
T3
X2.37Y-2.01
X2.37Y-2.31
X2.39Y-2.9
X2.69Y-2.9
X4.339Y-2.6687
X4.639Y-2.6687
T4
X3.0362Y-1.5236
X3.0362Y-2.4488
X3.1362Y-1.5236
X3.1362Y-2.4488
X3.2362Y-1.5236
X3.2362Y-2.4488
X3.3362Y-1.5236
X3.3362Y-2.4488
X3.4362Y-1.5236
X3.4362Y-2.4488
X3.5362Y-1.5236
X3.5362Y-2.4488
X3.6362Y-1.5236
X3.6362Y-2.4488
X3.7362Y-1.5236
X3.7362Y-2.4488
X3.8362Y-1.5236
X3.8362Y-2.4488
X3.9362Y-1.5236
X3.9362Y-2.4488
X4.0362Y-1.5236
X4.0362Y-2.4488
X4.1362Y-1.5236
X4.1362Y-2.4488
X4.2362Y-1.5236
X4.2362Y-2.4488
X4.3362Y-1.5236
X4.3362Y-2.4488
X4.4362Y-1.5236
X4.4362Y-2.4488
X4.5362Y-1.5236
X4.5362Y-2.4488
X4.6362Y-1.5236
X4.6362Y-2.4488
X4.7362Y-1.5236
X4.7362Y-2.4488
X4.8362Y-1.5236
X4.8362Y-2.4488
X5.2323Y-1.8964
X5.3307Y-1.8964
T5
X2.541Y-1.8347
X2.541Y-1.9347
X3.1602Y-2.8916
X3.1602Y-2.9916
X4.9966Y-2.68
X4.9966Y-2.78
X4.9966Y-2.88
X5.235Y-2.185
X5.235Y-2.285
T0
M30
